<svg width="62" height="16" viewBox="0 0 62 16" fill="none" xmlns="http://www.w3.org/2000/svg">
<path d="M4.07129 0L4.85614 2.06288H7.95086L8.74699 0H6.328C6.32723 0.00470684 6.32647 0.00942181 6.3257 0.0141449C6.32484 0.00942457 6.32397 0.0047096 6.32311 0H4.07129Z" fill="#FF2D60"/>
<path d="M12.8239 15.1533L7.94446 2.50098H6.3997H4.85495L0 15.1533H2.91787L6.3997 4.56065L9.75893 15.1533H12.8239Z" fill="#1C1818"/>
<path d="M8.56641 15.1533H2.45194V12.9956H7.91988L8.56641 15.1533Z" fill="#1C1818"/>
<path fill-rule="evenodd" clip-rule="evenodd" d="M51.9893 2.7666V15.1353H61.4119V12.6989H54.4762V10.1691H60.6712V7.7159H54.4762V5.20299H61.4119V2.7666H51.9893ZM60.7997 14.5212H52.6016V3.37876H52.6014V14.5231H60.7997V14.5212ZM53.8642 9.55697H60.059V9.55506H53.8642V9.55697ZM53.8642 4.59083H60.7997V4.58892H53.8642V4.59083Z" fill="#1C1818"/>
<path fill-rule="evenodd" clip-rule="evenodd" d="M39.6846 2.7666V15.1353H44.9935C45.7339 15.1353 46.4465 14.9968 47.1268 14.7197L47.1294 14.7186L47.132 14.7175C47.8242 14.428 48.4406 14.0123 48.9784 13.4745C49.5231 12.9299 49.948 12.2764 50.2567 11.5231C50.5725 10.7526 50.7233 9.89161 50.7233 8.95093C50.7233 8.01025 50.5725 7.14927 50.2567 6.37881C49.948 5.62548 49.5231 4.97197 48.9784 4.42732C48.4404 3.88933 47.8232 3.47857 47.1294 3.20009C46.449 2.91126 45.7354 2.7666 44.9935 2.7666H39.6846ZM44.943 4.574C45.7398 4.574 46.43 4.77601 47.0136 5.18004C47.5972 5.57284 48.0461 6.10031 48.3604 6.76247C48.6859 7.42462 48.8486 8.15411 48.8486 8.95093C48.8486 9.13012 48.8401 9.3061 48.8232 9.47887C48.8402 9.30549 48.8488 9.12887 48.8488 8.94902C48.8488 8.15219 48.686 7.4227 48.3606 6.76055C48.0463 6.0984 47.5974 5.57092 47.0138 5.17812C46.4302 4.7741 45.74 4.57209 44.9432 4.57209H41.5595V4.574H44.943ZM44.9935 14.5231C45.6557 14.5231 46.2898 14.3997 46.8958 14.1527C47.5131 13.8946 48.063 13.5243 48.5456 13.0417C49.0281 12.5591 49.4097 11.9755 49.6903 11.2909C49.8899 10.8039 50.0185 10.2687 50.0761 9.68519C50.0184 10.268 49.8898 10.8026 49.6905 11.289C49.4099 11.9736 49.0283 12.5572 48.5458 13.0398C48.0632 13.5224 47.5132 13.8927 46.896 14.1508C46.2899 14.3977 45.6559 14.5212 44.9937 14.5212H40.2969V3.37876H40.2967V14.5231H44.9935ZM44.943 12.7157H42.1715V5.18616H44.943C45.6312 5.18616 46.1963 5.35873 46.6652 5.68335L46.6685 5.68563L46.6718 5.68788C47.1604 6.01669 47.5382 6.4577 47.8073 7.02493L47.8091 7.02873L47.811 7.0325C48.0919 7.60403 48.2364 8.2401 48.2364 8.95093C48.2364 9.64911 48.0925 10.2798 47.811 10.8525L47.8091 10.8563L47.8073 10.8601C47.5375 11.4287 47.1577 11.8775 46.6652 12.2185C46.1963 12.5431 45.6312 12.7157 44.943 12.7157Z" fill="#1C1818"/>
<path fill-rule="evenodd" clip-rule="evenodd" d="M27.6007 13.2903L27.6031 13.2928L27.6055 13.2953C28.1705 13.8855 28.8416 14.3422 29.6122 14.6654C30.3912 14.9921 31.2416 15.1507 32.1552 15.1507C33.0688 15.1507 33.9193 14.9921 34.6983 14.6654C35.469 14.3422 36.1356 13.8849 36.6905 13.2928C37.2498 12.708 37.6793 12.035 37.9772 11.278L37.9778 11.2764L37.9784 11.2748C38.2765 10.5048 38.4237 9.68883 38.4237 8.8317C38.4237 7.96457 38.2769 7.14715 37.9772 6.38544C37.6793 5.62841 37.2498 4.9554 36.6905 4.37058C36.1356 3.77854 35.469 3.32121 34.6983 2.99802C33.9193 2.67134 33.0688 2.5127 32.1552 2.5127C31.2416 2.5127 30.3912 2.67134 29.6122 2.99802C28.8416 3.32118 28.1705 3.77795 27.6055 4.3681L27.6031 4.37058L27.6007 4.37309C27.0532 4.95802 26.6304 5.63026 26.3332 6.38544C26.0336 7.14715 25.8867 7.96457 25.8867 8.8317C25.8867 9.68883 26.034 10.5048 26.332 11.2748L26.3326 11.2764L26.3332 11.278C26.6304 12.0331 27.0532 12.7054 27.6007 13.2903ZM37.4075 11.0538C37.1382 11.7384 36.751 12.3445 36.246 12.8719C35.7522 13.3994 35.1573 13.8091 34.4615 14.1009C33.7657 14.3926 32.9969 14.5385 32.1552 14.5385C31.3135 14.5385 30.5447 14.3926 29.8489 14.1009C29.1531 13.8091 28.5527 13.3994 28.0476 12.8719C27.5538 12.3445 27.1723 11.7384 26.9029 11.0538C26.6336 10.358 26.4989 9.6173 26.4989 8.8317C26.4989 8.6057 26.5097 8.38422 26.5314 8.16725C26.5098 8.38361 26.4991 8.60445 26.4991 8.82979C26.4991 9.61539 26.6337 10.3561 26.9031 11.0519C27.1724 11.7365 27.554 12.3426 28.0478 12.87C28.5529 13.3975 29.1533 13.8071 29.8491 14.0989C30.5449 14.3907 31.3137 14.5366 32.1554 14.5366C32.9971 14.5366 33.7659 14.3907 34.4617 14.0989C35.1575 13.8071 35.7523 13.3975 36.2462 12.87C36.7512 12.3426 37.1384 11.7365 37.4077 11.0519C37.6017 10.5507 37.7259 10.0263 37.7801 9.47849C37.726 10.0269 37.6018 10.5521 37.4075 11.0538ZM36.0103 6.55906C35.6624 5.88569 35.1573 5.3526 34.4952 4.9598C33.8443 4.55577 33.0643 4.35376 32.1552 4.35376C31.2574 4.35376 30.4774 4.55577 29.8152 4.9598C29.1531 5.3526 28.6425 5.88569 28.2833 6.55906C28.0157 7.07698 27.851 7.64469 27.7893 8.26219C27.8509 7.64394 28.0156 7.0756 28.2835 6.55715C28.6426 5.88377 29.1533 5.35069 29.8154 4.95788C30.4776 4.55386 31.2576 4.35185 32.1554 4.35185C33.0645 4.35185 33.8445 4.55386 34.4954 4.95788C35.1575 5.35069 35.6626 5.88377 36.0105 6.55715C36.3696 7.23052 36.5492 7.98807 36.5492 8.82979C36.5492 9.01341 36.5404 9.19347 36.5228 9.36996C36.5403 9.19408 36.549 9.01466 36.549 8.8317C36.549 7.98998 36.3694 7.23244 36.0103 6.55906ZM32.1552 12.6975C31.3504 12.6975 30.6831 12.5226 30.1308 12.1959C29.5638 11.8492 29.1323 11.3932 28.8263 10.8216C28.5274 10.2312 28.3736 9.57158 28.3736 8.8317C28.3736 8.07832 28.5283 7.42 28.8254 6.84358C29.1312 6.27163 29.562 5.82179 30.1276 5.48629L30.1308 5.48434L30.1341 5.48236C30.6859 5.14566 31.3519 4.96592 32.1552 4.96592C32.9717 4.96592 33.6352 5.14647 34.1724 5.47991L34.1776 5.48315L34.1829 5.48629C34.748 5.82154 35.172 6.27028 35.4664 6.84006L35.4683 6.84361L35.4701 6.84714C35.7773 7.42299 35.9368 8.07992 35.9368 8.8317C35.9368 9.57068 35.7779 10.2295 35.4682 10.82L35.4673 10.8216L35.4664 10.8233C35.1715 11.3942 34.7459 11.85 34.1778 12.197C33.6397 12.5214 32.9742 12.6975 32.1552 12.6975Z" fill="#1C1818"/>
<path fill-rule="evenodd" clip-rule="evenodd" d="M15.5057 14.2969L15.5083 14.2985L15.5109 14.3001C16.4314 14.8755 17.5076 15.1507 18.714 15.1507C19.6272 15.1507 20.4693 14.9922 21.23 14.6625L21.234 14.6608L21.2378 14.6591C21.983 14.3238 22.625 13.8661 23.1558 13.2847L23.158 13.2823L23.1602 13.2798C23.6856 12.6919 24.0801 12.0215 24.3421 11.2729L24.6271 10.4585H22.0237L21.868 10.8385C21.6329 11.4121 21.2677 11.8591 20.7649 12.1943C20.283 12.5155 19.6462 12.6975 18.815 12.6975C18.0106 12.6975 17.3594 12.5229 16.8344 12.202C16.3041 11.8598 15.9053 11.4089 15.6298 10.8397C15.3475 10.2453 15.2017 9.57931 15.2017 8.8317C15.2017 8.07059 15.3484 7.40588 15.6289 6.82545C15.9046 6.255 16.3035 5.80994 16.8331 5.47891L16.8344 5.47814L16.8356 5.47737C17.3605 5.14586 18.011 4.96592 18.815 4.96592C19.6462 4.96592 20.283 5.14785 20.7649 5.46914C21.2677 5.80433 21.6329 6.25133 21.868 6.82488L22.0237 7.20489H24.6225L24.3431 6.39347C24.0812 5.63268 23.6856 4.95892 23.1558 4.37869C22.6242 3.79647 21.9809 3.34367 21.2339 3.01938C20.4723 2.67737 19.6287 2.5127 18.714 2.5127C17.5062 2.5127 16.429 2.79424 15.5083 3.38173C14.6053 3.94676 13.9074 4.71539 13.4206 5.67643L13.4192 5.67926L13.4178 5.68212C12.9459 6.63829 12.7148 7.69183 12.7148 8.8317C12.7148 9.97157 12.9459 11.0251 13.4178 11.9813L13.4192 11.9841L13.4206 11.987C13.9072 12.9478 14.6044 13.721 15.5057 14.2969ZM23.7638 11.0707C23.5281 11.7433 23.1748 12.3431 22.7039 12.87C22.2326 13.3863 21.6602 13.7959 20.9868 14.0989C20.3134 14.3907 19.5559 14.5366 18.7142 14.5366C17.6031 14.5366 16.6436 14.2841 15.8355 13.7791C15.0275 13.2628 14.4046 12.5726 13.9669 11.7085C13.5404 10.8443 13.3272 9.88474 13.3272 8.82979C13.3272 8.5808 13.3391 8.33714 13.3628 8.09878C13.3389 8.33775 13.327 8.58205 13.327 8.8317C13.327 9.88665 13.5402 10.8462 13.9667 11.7104C14.4044 12.5745 15.0273 13.2647 15.8353 13.781C16.6434 14.286 17.6029 14.5385 18.714 14.5385C19.5557 14.5385 20.3133 14.3926 20.9866 14.1009C21.66 13.7978 22.2324 13.3882 22.7037 12.8719C23.0272 12.5099 23.2952 12.1136 23.5077 11.6828C23.6048 11.486 23.6904 11.2819 23.7643 11.0707H23.7638ZM15.0778 6.55906C14.8319 7.06777 14.6789 7.62452 14.6188 8.2293C14.6788 7.62378 14.8318 7.06639 15.078 6.55715C15.4034 5.88377 15.8804 5.35069 16.5089 4.95788C17.1486 4.55386 17.9174 4.35185 18.8152 4.35185C19.7355 4.35185 20.4986 4.55386 21.1047 4.95788C21.7107 5.36191 22.154 5.90622 22.4346 6.59082H23.7636C23.7639 6.59145 23.7641 6.59209 23.7643 6.59273H22.4344C22.1538 5.90813 21.7105 5.36382 21.1045 4.9598C20.4984 4.55577 19.7353 4.35376 18.815 4.35376C17.9172 4.35376 17.1484 4.55577 16.5087 4.9598C15.8802 5.3526 15.4032 5.88569 15.0778 6.55906Z" fill="#1C1818"/>
</svg>
