<svg width="62" height="15" viewBox="0 0 62 15" fill="none" xmlns="http://www.w3.org/2000/svg">
<path d="M4.20508 0L4.98198 2.04199H8.04536L8.83342 0H6.43893C6.43817 0.00465917 6.43742 0.00932639 6.43666 0.0140016C6.4358 0.00932912 6.43495 0.0046619 6.43409 0H4.20508Z" fill="#FF2D60"/>
<path d="M8.03978 2.47559L12.8698 14.9997H9.83588L6.51067 4.5144L3.76606 12.8642H8.01531L8.65529 15.0001H2.60275V14.9997H0.175781L4.98156 2.47559H8.03978Z" fill="#1C1818"/>
<path d="M51.8965 2.73828V14.9817H61.2237V12.57H54.3582V10.0658H60.4905V7.63746H54.3582V5.15H61.2237V2.73828H51.8965Z" fill="#1C1818"/>
<path fill-rule="evenodd" clip-rule="evenodd" d="M39.7393 2.73828V14.9817H44.9944C45.7273 14.9817 46.4327 14.8446 47.1061 14.5703L47.1087 14.5692L47.1112 14.5682C47.7965 14.2816 48.4067 13.8701 48.939 13.3378C49.4781 12.7986 49.8987 12.1517 50.2043 11.406C50.5169 10.6434 50.6662 9.79113 50.6662 8.85998C50.6662 7.92882 50.5169 7.07656 50.2043 6.31391C49.8987 5.56821 49.4781 4.92131 48.939 4.38218C48.4064 3.84964 47.7954 3.44304 47.1087 3.16738C46.4352 2.88147 45.7288 2.73828 44.9944 2.73828H39.7393ZM44.9444 12.5866H42.201V5.13333H44.9444C45.6257 5.13333 46.185 5.30415 46.6492 5.62549L46.6524 5.62775L46.6557 5.62997C47.1393 5.95546 47.5133 6.39199 47.7798 6.95348L47.7816 6.95724L47.7834 6.96098C48.0615 7.52672 48.2045 8.15634 48.2045 8.85998C48.2045 9.55109 48.062 10.1754 47.7834 10.7423L47.7816 10.7461L47.7798 10.7498C47.5126 11.3127 47.1367 11.7569 46.6492 12.0945C46.185 12.4158 45.6257 12.5866 44.9444 12.5866Z" fill="#1C1818"/>
<path fill-rule="evenodd" clip-rule="evenodd" d="M27.7849 13.1582L27.7826 13.1558C27.2406 12.5768 26.8221 11.9113 26.5279 11.1638L26.5273 11.1622L26.5267 11.1607C26.2317 10.3985 26.0859 9.59076 26.0859 8.74231C26.0859 7.88397 26.2313 7.07483 26.5279 6.32083C26.8221 5.5733 27.2406 4.90787 27.7826 4.32886L27.7849 4.32638L27.7873 4.32392C28.3466 3.73974 29.0108 3.2876 29.7737 2.96771C30.5448 2.64435 31.3866 2.4873 32.291 2.4873C33.1953 2.4873 34.0371 2.64435 34.8082 2.96771C35.5711 3.28763 36.231 3.74033 36.7803 4.32637C37.334 4.90527 37.7591 5.57146 38.054 6.32083C38.3506 7.07483 38.496 7.88397 38.496 8.74231C38.496 9.59076 38.3502 10.3985 38.0552 11.1607L38.0546 11.1622L38.054 11.1638C37.7591 11.9132 37.334 12.5793 36.7803 13.1583C36.231 13.7443 35.5711 14.197 34.8082 14.5169C34.0371 14.8403 33.1953 14.9973 32.291 14.9973C31.3866 14.9973 30.5448 14.8403 29.7737 14.5169C29.0108 14.197 28.3466 13.7449 27.7873 13.1607L27.7849 13.1582ZM30.2871 12.0724C30.8337 12.3959 31.4943 12.5689 32.291 12.5689C33.1016 12.5689 33.7604 12.3946 34.2931 12.0735C34.8554 11.7301 35.2767 11.2788 35.5686 10.7138L35.5695 10.7121L35.5704 10.7104C35.877 10.126 36.0343 9.4738 36.0343 8.74231C36.0343 7.99814 35.8763 7.34787 35.5723 6.77785L35.5704 6.77435L35.5686 6.77084C35.2772 6.20683 34.8575 5.76264 34.2981 5.43078L34.2928 5.42768L34.2877 5.42447C33.7559 5.09441 33.0992 4.91568 32.291 4.91568C31.4957 4.91568 30.8365 5.0936 30.2903 5.42689L30.2871 5.42886L30.2838 5.43078C29.724 5.76289 29.2975 6.20817 28.9948 6.77433C28.7008 7.34491 28.5476 7.99657 28.5476 8.74231C28.5476 9.4747 28.6998 10.1276 28.9958 10.7121C29.2987 11.2779 29.7258 11.7292 30.2871 12.0724Z" fill="#1C1818"/>
<path fill-rule="evenodd" clip-rule="evenodd" d="M15.8242 14.1521L15.8267 14.1537L15.8292 14.1553C16.7405 14.7249 17.8057 14.9973 18.9999 14.9973C19.9039 14.9973 20.7375 14.8404 21.4905 14.5141L21.4944 14.5124L21.4982 14.5107C22.2358 14.1787 22.8713 13.7257 23.3967 13.1502L23.3989 13.1478L23.4011 13.1454C23.9212 12.5634 24.3117 11.8998 24.571 11.1588L24.8532 10.3526H22.2761L22.1219 10.7288C21.8893 11.2965 21.5277 11.739 21.0301 12.0708C20.553 12.3889 19.9227 12.5689 19.0999 12.5689C18.3037 12.5689 17.659 12.3961 17.1393 12.0785C16.6144 11.7398 16.2196 11.2934 15.9469 10.73C15.6675 10.1416 15.5232 9.48235 15.5232 8.74231C15.5232 7.98891 15.6684 7.33093 15.9461 6.75638C16.219 6.19171 16.6138 5.75116 17.1381 5.42347L17.1393 5.42272L17.1405 5.42195C17.6601 5.0938 18.304 4.91568 19.0999 4.91568C19.9227 4.91568 20.553 5.09577 21.0301 5.41381C21.5277 5.7456 21.8893 6.18808 22.1219 6.75581L22.2761 7.13198H24.8485L24.572 6.32877C24.3128 5.57569 23.9212 4.90876 23.3967 4.33441C22.8705 3.75808 22.2337 3.30987 21.4943 2.98886C20.7404 2.65031 19.9053 2.4873 18.9999 2.4873C17.8043 2.4873 16.7381 2.766 15.8267 3.34754C14.9328 3.90685 14.242 4.66769 13.7601 5.61899L13.7587 5.6218L13.7573 5.62463C13.2902 6.57111 13.0615 7.61399 13.0615 8.74231C13.0615 9.87064 13.2902 10.9135 13.7573 11.86L13.7587 11.8628L13.7601 11.8656C14.2418 12.8167 14.932 13.5821 15.8242 14.1521ZM23.6592 6.52434C23.6594 6.5249 23.6596 6.52546 23.6598 6.52602H23.9991L23.9985 6.52434H23.6592Z" fill="#1C1818"/>
</svg>
