<svg width="148" height="44" viewBox="0 0 148 44" fill="none" xmlns="http://www.w3.org/2000/svg">
<mask id="path-1-outside-1_947_17429" maskUnits="userSpaceOnUse" x="31.8828" y="6.54199" width="116" height="31" fill="black">
<rect fill="white" x="31.8828" y="6.54199" width="116" height="31"/>
<path d="M46.223 35.8616C43.5866 35.8616 41.3098 35.2624 39.3924 34.064C37.4751 32.8391 35.9971 31.2013 34.9586 29.1508C33.9466 27.1003 33.4407 24.8235 33.4407 22.3203C33.4407 19.8171 33.9466 17.5402 34.9586 15.4897C35.9971 13.4392 37.4751 11.8148 39.3924 10.6164C41.3098 9.39146 43.5866 8.77897 46.223 8.77897C48.2202 8.77897 50.0178 9.13848 51.6155 9.85748C53.2133 10.5499 54.5715 11.5085 55.6899 12.7335C56.8084 13.9585 57.6472 15.3832 58.2064 17.0076H55.0508C54.3851 15.3832 53.3332 14.0916 51.8952 13.133C50.4571 12.1743 48.6463 11.6949 46.4627 11.6949C44.3323 11.6949 42.5081 12.1743 40.9902 13.133C39.499 14.065 38.3672 15.3299 37.5949 16.9277C36.8227 18.5255 36.4365 20.323 36.4365 22.3203C36.4365 24.2909 36.8227 26.0884 37.5949 27.7128C38.3672 29.3106 39.499 30.5888 40.9902 31.5475C42.5081 32.4796 44.3323 32.9456 46.4627 32.9456C48.6463 32.9456 50.4571 32.4662 51.8952 31.5076C53.3332 30.5489 54.3851 29.2573 55.0508 27.6329H58.2064C57.6472 29.2307 56.8084 30.6554 55.6899 31.907C54.5715 33.132 53.2133 34.104 51.6155 34.823C50.0178 35.5154 48.2202 35.8616 46.223 35.8616ZM76.4384 35.8616C74.4412 35.8616 72.617 35.5154 70.966 34.823C69.3149 34.1306 67.8902 33.1586 66.6919 31.907C65.5202 30.6554 64.6148 29.2174 63.9757 27.593C63.3365 25.9419 63.017 24.1844 63.017 22.3203C63.017 20.4295 63.3365 18.672 63.9757 17.0475C64.6148 15.4231 65.5202 13.9851 66.6919 12.7335C67.8902 11.4819 69.3149 10.5099 70.966 9.81754C72.617 9.12516 74.4412 8.77897 76.4384 8.77897C78.4357 8.77897 80.2598 9.12516 81.9109 9.81754C83.5619 10.5099 84.9733 11.4819 86.145 12.7335C87.3434 13.9851 88.2621 15.4231 88.9012 17.0475C89.5403 18.672 89.8599 20.4295 89.8599 22.3203C89.8599 24.1844 89.5403 25.9419 88.9012 27.593C88.2621 29.2174 87.3434 30.6554 86.145 31.907C84.9733 33.1586 83.5619 34.1306 81.9109 34.823C80.2598 35.5154 78.4357 35.8616 76.4384 35.8616ZM76.4384 32.9456C78.5955 32.9456 80.4462 32.4796 81.9908 31.5475C83.5619 30.5888 84.7603 29.3106 85.5858 27.7128C86.438 26.0884 86.864 24.2909 86.864 22.3203C86.864 20.323 86.438 18.5255 85.5858 16.9277C84.7603 15.3299 83.5619 14.065 81.9908 13.133C80.4462 12.1743 78.5955 11.6949 76.4384 11.6949C74.308 11.6949 72.4573 12.1743 70.8861 13.133C69.3149 14.065 68.1033 15.3299 67.2511 16.9277C66.4256 18.5255 66.0128 20.323 66.0128 22.3203C66.0128 24.2909 66.4256 26.0884 67.2511 27.7128C68.1033 29.3106 69.3149 30.5888 70.8861 31.5475C72.4573 32.4796 74.308 32.9456 76.4384 32.9456ZM96.6505 35.542V9.09853H107.795C109.366 9.09853 110.871 9.40477 112.309 10.0173C113.774 10.6031 115.078 11.4686 116.223 12.6137C117.369 13.7588 118.274 15.1435 118.94 16.7679C119.605 18.3924 119.938 20.2431 119.938 22.3203C119.938 24.3974 119.605 26.2482 118.94 27.8726C118.274 29.497 117.369 30.8818 116.223 32.0268C115.078 33.1719 113.774 34.0507 112.309 34.6632C110.871 35.2491 109.366 35.542 107.795 35.542H96.6505ZM99.6464 32.7059H107.675C109.566 32.7059 111.204 32.2266 112.588 31.2679C113.973 30.3092 115.038 29.0443 115.784 27.4731C116.556 25.902 116.942 24.1844 116.942 22.3203C116.942 20.4295 116.556 18.6986 115.784 17.1274C115.038 15.5563 113.973 14.3047 112.588 13.3726C111.204 12.4139 109.566 11.9346 107.675 11.9346H99.6464V32.7059ZM126.734 35.542V9.09853H146.187V11.9746H129.73V20.8423H144.429V23.7583H129.73V32.666H146.187V35.542H126.734Z"/>
</mask>
<path d="M46.223 35.8616C43.5866 35.8616 41.3098 35.2624 39.3924 34.064C37.4751 32.8391 35.9971 31.2013 34.9586 29.1508C33.9466 27.1003 33.4407 24.8235 33.4407 22.3203C33.4407 19.8171 33.9466 17.5402 34.9586 15.4897C35.9971 13.4392 37.4751 11.8148 39.3924 10.6164C41.3098 9.39146 43.5866 8.77897 46.223 8.77897C48.2202 8.77897 50.0178 9.13848 51.6155 9.85748C53.2133 10.5499 54.5715 11.5085 55.6899 12.7335C56.8084 13.9585 57.6472 15.3832 58.2064 17.0076H55.0508C54.3851 15.3832 53.3332 14.0916 51.8952 13.133C50.4571 12.1743 48.6463 11.6949 46.4627 11.6949C44.3323 11.6949 42.5081 12.1743 40.9902 13.133C39.499 14.065 38.3672 15.3299 37.5949 16.9277C36.8227 18.5255 36.4365 20.323 36.4365 22.3203C36.4365 24.2909 36.8227 26.0884 37.5949 27.7128C38.3672 29.3106 39.499 30.5888 40.9902 31.5475C42.5081 32.4796 44.3323 32.9456 46.4627 32.9456C48.6463 32.9456 50.4571 32.4662 51.8952 31.5076C53.3332 30.5489 54.3851 29.2573 55.0508 27.6329H58.2064C57.6472 29.2307 56.8084 30.6554 55.6899 31.907C54.5715 33.132 53.2133 34.104 51.6155 34.823C50.0178 35.5154 48.2202 35.8616 46.223 35.8616ZM76.4384 35.8616C74.4412 35.8616 72.617 35.5154 70.966 34.823C69.3149 34.1306 67.8902 33.1586 66.6919 31.907C65.5202 30.6554 64.6148 29.2174 63.9757 27.593C63.3365 25.9419 63.017 24.1844 63.017 22.3203C63.017 20.4295 63.3365 18.672 63.9757 17.0475C64.6148 15.4231 65.5202 13.9851 66.6919 12.7335C67.8902 11.4819 69.3149 10.5099 70.966 9.81754C72.617 9.12516 74.4412 8.77897 76.4384 8.77897C78.4357 8.77897 80.2598 9.12516 81.9109 9.81754C83.5619 10.5099 84.9733 11.4819 86.145 12.7335C87.3434 13.9851 88.2621 15.4231 88.9012 17.0475C89.5403 18.672 89.8599 20.4295 89.8599 22.3203C89.8599 24.1844 89.5403 25.9419 88.9012 27.593C88.2621 29.2174 87.3434 30.6554 86.145 31.907C84.9733 33.1586 83.5619 34.1306 81.9109 34.823C80.2598 35.5154 78.4357 35.8616 76.4384 35.8616ZM76.4384 32.9456C78.5955 32.9456 80.4462 32.4796 81.9908 31.5475C83.5619 30.5888 84.7603 29.3106 85.5858 27.7128C86.438 26.0884 86.864 24.2909 86.864 22.3203C86.864 20.323 86.438 18.5255 85.5858 16.9277C84.7603 15.3299 83.5619 14.065 81.9908 13.133C80.4462 12.1743 78.5955 11.6949 76.4384 11.6949C74.308 11.6949 72.4573 12.1743 70.8861 13.133C69.3149 14.065 68.1033 15.3299 67.2511 16.9277C66.4256 18.5255 66.0128 20.323 66.0128 22.3203C66.0128 24.2909 66.4256 26.0884 67.2511 27.7128C68.1033 29.3106 69.3149 30.5888 70.8861 31.5475C72.4573 32.4796 74.308 32.9456 76.4384 32.9456ZM96.6505 35.542V9.09853H107.795C109.366 9.09853 110.871 9.40477 112.309 10.0173C113.774 10.6031 115.078 11.4686 116.223 12.6137C117.369 13.7588 118.274 15.1435 118.94 16.7679C119.605 18.3924 119.938 20.2431 119.938 22.3203C119.938 24.3974 119.605 26.2482 118.94 27.8726C118.274 29.497 117.369 30.8818 116.223 32.0268C115.078 33.1719 113.774 34.0507 112.309 34.6632C110.871 35.2491 109.366 35.542 107.795 35.542H96.6505ZM99.6464 32.7059H107.675C109.566 32.7059 111.204 32.2266 112.588 31.2679C113.973 30.3092 115.038 29.0443 115.784 27.4731C116.556 25.902 116.942 24.1844 116.942 22.3203C116.942 20.4295 116.556 18.6986 115.784 17.1274C115.038 15.5563 113.973 14.3047 112.588 13.3726C111.204 12.4139 109.566 11.9346 107.675 11.9346H99.6464V32.7059ZM126.734 35.542V9.09853H146.187V11.9746H129.73V20.8423H144.429V23.7583H129.73V32.666H146.187V35.542H126.734Z" fill="#1C1818"/>
<path d="M39.3924 34.064L38.6886 35.1657L38.6996 35.1726L39.3924 34.064ZM34.9586 29.1508L33.7862 29.7294L33.7923 29.7415L34.9586 29.1508ZM34.9586 15.4897L33.7923 14.899L33.7863 14.9112L34.9586 15.4897ZM39.3924 10.6164L40.0853 11.7251L40.0963 11.7181L39.3924 10.6164ZM51.6155 9.85748L51.0791 11.0496L51.0874 11.0534L51.0958 11.057L51.6155 9.85748ZM58.2064 17.0076V18.3149H60.0391L59.4425 16.5821L58.2064 17.0076ZM55.0508 17.0076L53.8412 17.5034L54.1738 18.3149H55.0508V17.0076ZM51.8952 13.133L52.6203 12.0452L52.6203 12.0452L51.8952 13.133ZM40.9902 13.133L41.6831 14.2415L41.6883 14.2382L40.9902 13.133ZM37.5949 16.9277L36.4179 16.3588L37.5949 16.9277ZM37.5949 27.7128L36.4142 28.2741L36.4179 28.2817L37.5949 27.7128ZM40.9902 31.5475L40.2833 32.6472L40.2947 32.6545L40.3062 32.6615L40.9902 31.5475ZM51.8952 31.5076L52.6203 32.5953H52.6203L51.8952 31.5076ZM55.0508 27.6329V26.3256H54.1738L53.8412 27.1372L55.0508 27.6329ZM58.2064 27.6329L59.4403 28.0648L60.049 26.3256H58.2064V27.6329ZM55.6899 31.907L56.6554 32.7885L56.6647 32.7781L55.6899 31.907ZM51.6155 34.823L52.1353 36.0225L52.1437 36.0189L52.152 36.0151L51.6155 34.823ZM46.223 34.5543C43.7903 34.5543 41.7624 34.0036 40.0853 32.9555L38.6996 35.1726C40.8572 36.5211 43.383 37.1688 46.223 37.1688V34.5543ZM40.0963 32.9624C38.3781 31.8647 37.0588 30.4043 36.1248 28.5601L33.7923 29.7415C34.9354 31.9984 36.5721 33.8135 38.6886 35.1657L40.0963 32.9624ZM36.1309 28.5723C35.2159 26.7183 34.7479 24.6421 34.7479 22.3203H32.1334C32.1334 25.0048 32.6774 27.4824 33.7863 29.7294L36.1309 28.5723ZM34.7479 22.3203C34.7479 19.9984 35.2159 17.9223 36.1309 16.0682L33.7863 14.9112C32.6774 17.1581 32.1334 19.6357 32.1334 22.3203H34.7479ZM36.1248 16.0804C37.0576 14.2387 38.3735 12.7949 40.0853 11.725L38.6996 9.50786C36.5767 10.8347 34.9367 12.6397 33.7923 14.899L36.1248 16.0804ZM40.0963 11.7181C41.7718 10.6476 43.7956 10.0863 46.223 10.0863V7.47169C43.3777 7.47169 40.8478 8.1353 38.6886 9.51479L40.0963 11.7181ZM46.223 10.0863C48.0611 10.0863 49.672 10.4164 51.0791 11.0496L52.152 8.66534C50.3635 7.86051 48.3794 7.47169 46.223 7.47169V10.0863ZM51.0958 11.057C52.5328 11.6797 53.7367 12.533 54.7245 13.615L56.6553 11.852C55.4063 10.484 53.8938 9.41999 52.1353 8.65798L51.0958 11.057ZM54.7245 13.615C55.7182 14.7033 56.4671 15.9714 56.9704 17.4331L59.4425 16.5821C58.8273 14.7949 57.8985 13.2136 56.6553 11.852L54.7245 13.615ZM58.2064 15.7003H55.0508V18.3149H58.2064V15.7003ZM56.2604 16.5118C55.4975 14.6503 54.2789 13.1509 52.6203 12.0452L51.17 14.2207C52.3875 15.0323 53.2726 16.1161 53.8412 17.5034L56.2604 16.5118ZM52.6203 12.0452C50.9173 10.9099 48.8365 10.3877 46.4627 10.3877V13.0022C48.4561 13.0022 49.997 13.4387 51.17 14.2207L52.6203 12.0452ZM46.4627 10.3877C44.1319 10.3877 42.0552 10.9141 40.2921 12.0277L41.6883 14.2382C42.961 13.4344 44.5327 13.0022 46.4627 13.0022V10.3877ZM40.2974 12.0244C38.595 13.0883 37.2964 14.5412 36.4179 16.3588L38.7719 17.4966C39.438 16.1186 40.4029 15.0417 41.6831 14.2415L40.2974 12.0244ZM36.4179 16.3588C35.5497 18.1551 35.1292 20.1509 35.1292 22.3203H37.7438C37.7438 20.4952 38.0956 18.8959 38.7719 17.4966L36.4179 16.3588ZM35.1292 22.3203C35.1292 24.4662 35.5509 26.4581 36.4143 28.2741L38.7756 27.1515C38.0944 25.7187 37.7438 24.1155 37.7438 22.3203H35.1292ZM36.4179 28.2817C37.2949 30.0961 38.5892 31.5581 40.2833 32.6472L41.6972 30.4479C40.4087 29.6196 39.4395 28.5251 38.7719 27.1439L36.4179 28.2817ZM40.3062 32.6615C42.067 33.7428 44.1385 34.2529 46.4627 34.2529V31.6383C44.5261 31.6383 42.9492 31.2163 41.6743 30.4335L40.3062 32.6615ZM46.4627 34.2529C48.8365 34.2529 50.9173 33.7306 52.6203 32.5953L51.17 30.4198C49.997 31.2018 48.4561 31.6383 46.4627 31.6383V34.2529ZM52.6203 32.5953C54.2789 31.4896 55.4975 29.9903 56.2604 28.1287L53.8412 27.1372C53.2726 28.5244 52.3875 29.6082 51.17 30.4198L52.6203 32.5953ZM55.0508 28.9402H58.2064V26.3256H55.0508V28.9402ZM56.9725 27.2011C56.4695 28.6383 55.7182 29.9134 54.7151 31.0359L56.6647 32.7781C57.8985 31.3974 58.8249 29.8232 59.4403 28.0648L56.9725 27.2011ZM54.7245 31.0256C53.733 32.1114 52.5235 32.9809 51.0791 33.6308L52.152 36.0151C53.9032 35.2271 55.4099 34.1525 56.6553 32.7885L54.7245 31.0256ZM51.0958 33.6235C49.6844 34.2351 48.0676 34.5543 46.223 34.5543V37.1688C48.3729 37.1688 50.3511 36.7957 52.1353 36.0225L51.0958 33.6235ZM70.966 34.823L70.4604 36.0286L70.966 34.823ZM66.6919 31.907L65.7376 32.8004L65.7426 32.8058L65.7476 32.8111L66.6919 31.907ZM63.9757 27.593L62.7565 28.0649L62.7591 28.0716L63.9757 27.593ZM63.9757 17.0475L62.7591 16.5689L63.9757 17.0475ZM66.6919 12.7335L65.7476 11.8294L65.7426 11.8347L65.7376 11.8401L66.6919 12.7335ZM70.966 9.81754L70.4604 8.61196V8.61197L70.966 9.81754ZM81.9109 9.81754L82.4164 8.61197V8.61196L81.9109 9.81754ZM86.145 12.7335L85.1907 13.6269L85.1957 13.6323L85.2008 13.6376L86.145 12.7335ZM88.9012 27.593L90.1177 28.0716L90.1203 28.0649L88.9012 27.593ZM86.145 31.907L85.2008 31.0029L85.1957 31.0082L85.1907 31.0136L86.145 31.907ZM81.9109 34.823L82.4164 36.0286L81.9109 34.823ZM81.9908 31.5475L82.6662 32.6668L82.6717 32.6635L81.9908 31.5475ZM85.5858 27.7128L84.4281 27.1055L84.4244 27.1127L85.5858 27.7128ZM85.5858 16.9277L84.4244 17.5278L84.4283 17.5354L84.4323 17.5429L85.5858 16.9277ZM81.9908 13.133L81.3013 14.2437L81.3125 14.2506L81.3238 14.2573L81.9908 13.133ZM70.8861 13.133L71.5531 14.2573L71.5601 14.2531L71.567 14.2489L70.8861 13.133ZM67.2511 16.9277L66.0976 16.3125L66.0936 16.3201L66.0897 16.3276L67.2511 16.9277ZM67.2511 27.7128L66.0857 28.3051L66.0916 28.3166L66.0976 28.328L67.2511 27.7128ZM70.8861 31.5475L70.2052 32.6635L70.2121 32.6677L70.2191 32.6718L70.8861 31.5475ZM76.4384 34.5543C74.5947 34.5543 72.945 34.2353 71.4716 33.6174L70.4604 36.0286C72.2891 36.7954 74.2877 37.1688 76.4384 37.1688V34.5543ZM71.4716 33.6174C69.9802 32.992 68.7063 32.1207 67.6362 31.0029L65.7476 32.8111C67.0741 34.1966 68.6496 35.2692 70.4604 36.0286L71.4716 33.6174ZM67.6462 31.0136C66.5894 29.8847 65.772 28.588 65.1922 27.1143L62.7591 28.0716C63.4576 29.8467 64.451 31.4261 65.7376 32.8004L67.6462 31.0136ZM65.1948 27.1211C64.617 25.6284 64.3243 24.0316 64.3243 22.3203H61.7097C61.7097 24.3371 62.0561 26.2555 62.7565 28.0649L65.1948 27.1211ZM64.3243 22.3203C64.3243 20.5797 64.6178 18.9859 65.1922 17.5262L62.7591 16.5689C62.0552 18.358 61.7097 20.2794 61.7097 22.3203H64.3243ZM65.1922 17.5262C65.772 16.0525 66.5894 14.7558 67.6462 13.6269L65.7376 11.8401C64.451 13.2144 63.4576 14.7938 62.7591 16.5689L65.1922 17.5262ZM67.6362 13.6376C68.7063 12.5198 69.9802 11.6485 71.4716 11.0231L70.4604 8.61197C68.6496 9.37133 67.0741 10.444 65.7476 11.8294L67.6362 13.6376ZM71.4716 11.0231C72.945 10.4052 74.5947 10.0863 76.4384 10.0863V7.47169C74.2877 7.47169 72.2891 7.8451 70.4604 8.61196L71.4716 11.0231ZM76.4384 10.0863C78.2821 10.0863 79.9319 10.4052 81.4053 11.0231L82.4164 8.61196C80.5878 7.8451 78.5892 7.47169 76.4384 7.47169V10.0863ZM81.4053 11.0231C82.8941 11.6475 84.1505 12.5158 85.1907 13.6269L87.0994 11.8401C85.7962 10.448 84.2297 9.37237 82.4164 8.61197L81.4053 11.0231ZM85.2008 13.6376C86.2807 14.7655 87.1073 16.0587 87.6847 17.5262L90.1177 16.5689C89.4169 14.7875 88.4061 13.2047 87.0893 11.8294L85.2008 13.6376ZM87.6847 17.5262C88.259 18.9859 88.5526 20.5797 88.5526 22.3203H91.1672C91.1672 20.2794 90.8216 18.358 90.1177 16.5689L87.6847 17.5262ZM88.5526 22.3203C88.5526 24.0316 88.2599 25.6284 87.6821 27.1211L90.1203 28.0649C90.8208 26.2555 91.1672 24.3371 91.1672 22.3203H88.5526ZM87.6847 27.1143C87.1073 28.5818 86.2807 29.875 85.2008 31.0029L87.0893 32.8111C88.4061 31.4358 89.4169 29.853 90.1177 28.0716L87.6847 27.1143ZM85.1907 31.0136C84.1505 32.1247 82.8941 32.9931 81.4053 33.6174L82.4164 36.0286C84.2297 35.2681 85.7962 34.1925 87.0994 32.8004L85.1907 31.0136ZM81.4053 33.6174C79.9319 34.2353 78.2821 34.5543 76.4384 34.5543V37.1688C78.5892 37.1688 80.5878 36.7954 82.4164 36.0286L81.4053 33.6174ZM76.4384 34.2529C78.7866 34.2529 80.8811 33.744 82.6662 32.6668L81.3153 30.4282C80.0113 31.2151 78.4043 31.6383 76.4384 31.6383V34.2529ZM82.6717 32.6635C84.4422 31.5831 85.8091 30.1286 86.7472 28.3129L84.4244 27.1127C83.7114 28.4926 82.6816 29.5945 81.3098 30.4316L82.6717 32.6635ZM86.7435 28.3201C87.7011 26.4946 88.1713 24.4863 88.1713 22.3203H85.5567C85.5567 24.0954 85.1748 25.6822 84.4281 27.1055L86.7435 28.3201ZM88.1713 22.3203C88.1713 20.131 87.7025 18.1186 86.7393 16.3125L84.4323 17.5429C85.1734 18.9324 85.5567 20.5151 85.5567 22.3203H88.1713ZM86.7472 16.3276C85.8074 14.5086 84.4361 13.0636 82.6577 12.0086L81.3238 14.2573C82.6878 15.0664 83.7131 16.1512 84.4244 17.5278L86.7472 16.3276ZM82.6802 12.0222C80.8928 10.9128 78.7931 10.3877 76.4384 10.3877V13.0022C78.3978 13.0022 79.9997 13.4357 81.3013 14.2437L82.6802 12.0222ZM76.4384 10.3877C74.1063 10.3877 72.012 10.9146 70.2052 12.017L71.567 14.2489C72.9026 13.434 74.5098 13.0022 76.4384 13.0022V10.3877ZM70.2191 12.0086C68.4442 13.0615 67.0634 14.5017 66.0976 16.3125L68.4046 17.5429C69.1432 16.1581 70.1857 15.0685 71.5531 14.2573L70.2191 12.0086ZM66.0897 16.3276C65.1581 18.1307 64.7056 20.1376 64.7056 22.3203H67.3201C67.3201 20.5084 67.6931 18.9203 68.4126 17.5278L66.0897 16.3276ZM64.7056 22.3203C64.7056 24.4796 65.1595 26.4825 66.0857 28.3051L68.4166 27.1205C67.6917 25.6943 67.3201 24.1022 67.3201 22.3203H64.7056ZM66.0976 28.328C67.0616 30.1355 68.438 31.5852 70.2052 32.6635L71.567 30.4316C70.1919 29.5925 69.1449 28.4857 68.4046 27.0976L66.0976 28.328ZM70.2191 32.6718C72.0236 33.7423 74.1128 34.2529 76.4384 34.2529V31.6383C74.5033 31.6383 72.8909 31.2168 71.5531 30.4232L70.2191 32.6718ZM96.6505 35.542H95.3432V36.8493H96.6505V35.542ZM96.6505 9.09853V7.79124H95.3432V9.09853H96.6505ZM112.309 10.0173L111.797 11.22L111.81 11.2257L111.823 11.231L112.309 10.0173ZM118.94 16.7679L120.149 16.2722V16.2722L118.94 16.7679ZM118.94 27.8726L120.149 28.3683V28.3683L118.94 27.8726ZM116.223 32.0268L117.148 32.9512L116.223 32.0268ZM112.309 34.6632L112.802 35.8739L112.813 35.8693L112.309 34.6632ZM99.6464 32.7059H98.3391V34.0132H99.6464V32.7059ZM112.588 31.2679L111.844 30.1931L112.588 31.2679ZM115.784 27.4731L114.611 26.8965L114.607 26.9045L114.603 26.9127L115.784 27.4731ZM115.784 17.1274L114.603 17.6879L114.607 17.696L114.611 17.7041L115.784 17.1274ZM112.588 13.3726L111.844 14.4475L111.851 14.4523L111.859 14.4571L112.588 13.3726ZM99.6464 11.9346V10.6273H98.3391V11.9346H99.6464ZM97.9578 35.542V9.09853H95.3432V35.542H97.9578ZM96.6505 10.4058H107.795V7.79124H96.6505V10.4058ZM107.795 10.4058C109.191 10.4058 110.521 10.6769 111.797 11.22L112.821 8.81453C111.22 8.13268 109.541 7.79124 107.795 7.79124V10.4058ZM111.823 11.231C113.119 11.7494 114.276 12.5148 115.299 13.5381L117.148 11.6893C115.881 10.4224 114.428 9.45685 112.794 8.80348L111.823 11.231ZM115.299 13.5381C116.312 14.5506 117.124 15.786 117.73 17.2637L120.149 16.2722C119.423 14.501 118.425 12.9669 117.148 11.6893L115.299 13.5381ZM117.73 17.2637C118.321 18.7048 118.631 20.3826 118.631 22.3203H121.246C121.246 20.1037 120.89 18.08 120.149 16.2722L117.73 17.2637ZM118.631 22.3203C118.631 24.2579 118.321 25.9358 117.73 27.3768L120.149 28.3683C120.89 26.5606 121.246 24.5368 121.246 22.3203H118.631ZM117.73 27.3768C117.124 28.8545 116.312 30.0899 115.299 31.1025L117.148 32.9512C118.425 31.6736 119.423 30.1395 120.149 28.3683L117.73 27.3768ZM115.299 31.1025C114.272 32.1297 113.109 32.9116 111.805 33.4571L112.813 35.8693C114.438 35.1898 115.885 34.2142 117.148 32.9512L115.299 31.1025ZM111.816 33.4525C110.536 33.9738 109.199 34.2347 107.795 34.2347V36.8493C109.533 36.8493 111.206 36.5243 112.802 35.8739L111.816 33.4525ZM107.795 34.2347H96.6505V36.8493H107.795V34.2347ZM99.6464 34.0132H107.675V31.3986H99.6464V34.0132ZM107.675 34.0132C109.798 34.0132 111.703 33.471 113.333 32.3427L111.844 30.1931C110.705 30.9822 109.334 31.3986 107.675 31.3986V34.0132ZM113.333 32.3427C114.912 31.2494 116.125 29.8045 116.965 28.0336L114.603 26.9127C113.952 28.2841 113.035 29.369 111.844 30.1931L113.333 32.3427ZM116.957 28.0498C117.823 26.2877 118.25 24.371 118.25 22.3203H115.635C115.635 23.9977 115.289 25.5163 114.611 26.8965L116.957 28.0498ZM118.25 22.3203C118.25 20.2459 117.825 18.3155 116.957 16.5508L114.611 17.7041C115.288 19.0817 115.635 20.6132 115.635 22.3203H118.25ZM116.965 16.5669C116.123 14.7931 114.906 13.3568 113.318 12.2881L111.859 14.4571C113.04 15.2525 113.954 16.3195 114.603 17.6879L116.965 16.5669ZM113.333 12.2978C111.703 11.1695 109.798 10.6273 107.675 10.6273V13.2419C109.334 13.2419 110.705 13.6584 111.844 14.4475L113.333 12.2978ZM107.675 10.6273H99.6464V13.2419H107.675V10.6273ZM98.3391 11.9346V32.7059H100.954V11.9346H98.3391ZM126.734 35.542H125.427V36.8493H126.734V35.542ZM126.734 9.09853V7.79124H125.427V9.09853H126.734ZM146.187 9.09853H147.494V7.79124H146.187V9.09853ZM146.187 11.9746V13.2818H147.494V11.9746H146.187ZM129.73 11.9746V10.6673H128.423V11.9746H129.73ZM129.73 20.8423H128.423V22.1496H129.73V20.8423ZM144.429 20.8423H145.737V19.535H144.429V20.8423ZM144.429 23.7583V25.0656H145.737V23.7583H144.429ZM129.73 23.7583V22.451H128.423V23.7583H129.73ZM129.73 32.666H128.423V33.9733H129.73V32.666ZM146.187 32.666H147.494V31.3587H146.187V32.666ZM146.187 35.542V36.8493H147.494V35.542H146.187ZM128.041 35.542V9.09853H125.427V35.542H128.041ZM126.734 10.4058H146.187V7.79124H126.734V10.4058ZM144.88 9.09853V11.9746H147.494V9.09853H144.88ZM146.187 10.6673H129.73V13.2818H146.187V10.6673ZM128.423 11.9746V20.8423H131.037V11.9746H128.423ZM129.73 22.1496H144.429V19.535H129.73V22.1496ZM143.122 20.8423V23.7583H145.737V20.8423H143.122ZM144.429 22.451H129.73V25.0656H144.429V22.451ZM128.423 23.7583V32.666H131.037V23.7583H128.423ZM129.73 33.9733H146.187V31.3587H129.73V33.9733ZM144.88 32.666V35.542H147.494V32.666H144.88ZM146.187 34.2347H126.734V36.8493H146.187V34.2347Z" fill="#1C1818" mask="url(#path-1-outside-1_947_17429)"/>
<path d="M10.125 0L12.0773 5.13135H19.7753L21.7556 0H15.7385C15.7366 0.0117081 15.7347 0.0234364 15.7328 0.035185C15.7306 0.0234433 15.7285 0.011715 15.7263 0H10.125Z" fill="#FF003D"/>
<path d="M31.8991 37.6938L19.7616 6.22168H15.919H12.0765L0 37.6938H7.25811L15.919 11.3451L24.275 37.6938H31.8991Z" fill="#1C1818"/>
<path d="M21.3096 37.6934H6.10004V32.326H19.7014L21.3096 37.6934Z" fill="#1C1818"/>
<path d="M25.3103 37.5845L16.8492 10.7852H14.9972L7.69824 32.3917H19.718" stroke="#1C1818" stroke-width="0.581015"/>
<path d="M8.78711 32.9729L9.58601 30.5762H21.6421V32.9729H8.78711Z" fill="#E6E6E6"/>
</svg>
