<svg width="110" height="27" viewBox="0 0 110 27" fill="none" xmlns="http://www.w3.org/2000/svg">
<path d="M7.25299 0L8.65142 3.67558H14.1655L15.584 0H11.2739C11.2726 0.00838649 11.2712 0.0167875 11.2698 0.0252029C11.2683 0.0167924 11.2668 0.00839141 11.2652 0H7.25299Z" fill="#FF2D60"/>
<path d="M14.1552 4.45589L22.8492 26.9993H17.3881L11.4028 8.12575L6.46248 23.1554H14.1111L15.2631 27H4.36853V26.9993H0L8.65038 4.45589H14.1552Z" fill="white"/>
<path d="M93.0957 4.92925V26.9673H109.885V22.6262H97.5268V18.1188H108.565V13.7478H97.5268V9.27033H109.885V4.92925H93.0957Z" fill="white"/>
<path fill-rule="evenodd" clip-rule="evenodd" d="M71.2125 4.92925V26.9673H80.6718C81.991 26.9673 83.2607 26.7206 84.4728 26.2268L84.4774 26.2249L84.482 26.223C85.7155 25.7072 86.8138 24.9665 87.772 24.0083C88.7424 23.0379 89.4995 21.8735 90.0496 20.5312C90.6123 19.1584 90.881 17.6244 90.881 15.9483C90.881 14.2722 90.6123 12.7381 90.0496 11.3654C89.4995 10.0231 88.7424 8.85871 87.772 7.88827C86.8134 6.9297 85.7136 6.19781 84.4775 5.70162C83.2652 5.18699 81.9937 4.92925 80.6718 4.92925H71.2125ZM80.5818 22.6562H75.6436V9.24034H80.5818C81.808 9.24034 82.8149 9.54782 83.6504 10.1262L83.6562 10.1303L83.6622 10.1343C84.5326 10.7202 85.2058 11.5059 85.6854 12.5166L85.6886 12.5234L85.6919 12.5301C86.1925 13.5484 86.4499 14.6817 86.4499 15.9483C86.4499 17.1923 86.1935 18.316 85.6919 19.3365L85.6886 19.3432L85.6854 19.35C85.2046 20.3632 84.5279 21.1628 83.6504 21.7704C82.8149 22.3488 81.808 22.6562 80.5818 22.6562Z" fill="white"/>
<path fill-rule="evenodd" clip-rule="evenodd" d="M49.6959 23.6847L49.6917 23.6802C48.716 22.638 47.9627 21.4402 47.4333 20.0947L47.4322 20.0919L47.4311 20.0891C46.9001 18.7172 46.6377 17.2632 46.6377 15.736C46.6377 14.191 46.8993 12.7346 47.4333 11.3774C47.9627 10.0318 48.716 8.83404 49.6917 7.79182L49.6959 7.78736L49.7001 7.78294C50.7069 6.73142 51.9025 5.91757 53.2756 5.34176C54.6636 4.75971 56.1789 4.47703 57.8067 4.47703C59.4346 4.47703 60.9498 4.75971 62.3378 5.34176C63.711 5.91762 64.8988 6.73248 65.8875 7.78735C66.8841 8.82937 67.6494 10.0285 68.1801 11.3774C68.7141 12.7346 68.9757 14.191 68.9757 15.736C68.9757 17.2632 68.7134 18.7172 68.1823 20.0891L68.1812 20.0919L68.1801 20.0947C67.6494 21.4435 66.8841 22.6427 65.8875 23.6847C64.8988 24.7396 63.711 25.5544 62.3378 26.1303C60.9498 26.7123 59.4346 26.995 57.8067 26.995C56.1789 26.995 54.6636 26.7123 53.2756 26.1303C51.9025 25.5545 50.7069 24.7406 49.7001 23.6891L49.6959 23.6847ZM54.1997 21.7302C55.1837 22.3124 56.3727 22.6239 57.8067 22.6239C59.266 22.6239 60.4518 22.3102 61.4106 21.7321C62.4227 21.114 63.181 20.3018 63.7065 19.2847L63.7081 19.2817L63.7097 19.2786C64.2615 18.2267 64.5447 17.0527 64.5447 15.736C64.5447 14.3965 64.2604 13.226 63.7131 12.2L63.7098 12.1937L63.7065 12.1874C63.182 11.1722 62.4265 10.3726 61.4195 9.77528L61.4101 9.7697L61.4008 9.76392C60.4436 9.16981 59.2615 8.84811 57.8067 8.84811C56.3753 8.84811 55.1888 9.16836 54.2055 9.76828L54.1998 9.77182L54.1939 9.77528C53.1862 10.3731 52.4186 11.1746 51.8737 12.1937C51.3444 13.2207 51.0688 14.3937 51.0688 15.736C51.0688 17.0543 51.3427 18.2296 51.8754 19.2816C52.4206 20.3 53.1895 21.1125 54.1997 21.7302Z" fill="white"/>
<path fill-rule="evenodd" clip-rule="evenodd" d="M28.1665 25.4734L28.171 25.4764L28.1756 25.4792C29.8158 26.5044 31.7333 26.9948 33.8828 26.9948C35.51 26.9948 37.0105 26.7123 38.3658 26.125L38.3728 26.122L38.3797 26.1189C39.7075 25.5214 40.8513 24.7059 41.7971 23.67L41.801 23.6657L41.8049 23.6614C42.741 22.6138 43.444 21.4192 43.9108 20.0854L44.4187 18.6344H39.7799L39.5024 19.3115C39.0836 20.3334 38.4329 21.1299 37.5371 21.7271C36.6784 22.2996 35.5438 22.6237 34.0628 22.6237C32.6296 22.6237 31.4692 22.3127 30.5337 21.741C29.5889 21.1312 28.8783 20.3277 28.3875 19.3136C27.8846 18.2544 27.6248 17.0679 27.6248 15.7358C27.6248 14.3797 27.8861 13.1953 28.386 12.1611C28.8772 11.1447 29.5879 10.3517 30.5316 9.7619L30.5338 9.76053L30.5359 9.75916C31.4712 9.16849 32.6303 8.84787 34.0628 8.84787C35.5438 8.84787 36.6784 9.17203 37.5371 9.7445C38.4329 10.3417 39.0836 11.1382 39.5024 12.1601L39.7799 12.8372H44.4103L43.9126 11.3914C43.446 10.0359 42.741 8.83541 41.7971 7.80158C40.8499 6.76419 39.7037 5.95741 38.3728 5.3796C37.0157 4.77021 35.5125 4.4768 33.8828 4.4768C31.7308 4.4768 29.8116 4.97845 28.171 6.02522C26.562 7.03197 25.3185 8.40148 24.4512 10.1138L24.4487 10.1189L24.4462 10.124C23.6054 11.8276 23.1937 13.7048 23.1937 15.7358C23.1937 17.7668 23.6054 19.6439 24.4462 21.3476L24.4487 21.3527L24.4512 21.3578C25.3183 23.0697 26.5605 24.4474 28.1665 25.4734ZM42.2695 11.7434C42.2699 11.7445 42.2703 11.7455 42.2707 11.7465H42.8813L42.8803 11.7434H42.2695Z" fill="white"/>
</svg>
