<svg width="155" height="38" viewBox="0 0 155 38" fill="none" xmlns="http://www.w3.org/2000/svg">
<g id="&#235;&#161;&#156;&#234;&#179;&#160;">
<g id="Vector">
<path d="M10.2085 0L12.1767 5.17307H19.9373L21.9337 0H15.8676C15.8657 0.0118033 15.8638 0.023627 15.8619 0.0354711C15.8597 0.0236339 15.8575 0.0118102 15.8554 0H10.2085Z" fill="#FF2D60"/>
<path d="M19.9227 6.2713L32.1589 37.9993H24.4729L16.049 11.4363L9.09591 32.5893H19.8608L21.482 38.0003H6.14883V37.9993H0.000488281L12.1752 6.2713H19.9227Z" fill="white"/>
<path d="M131.025 6.93752V37.9543H154.654V31.8446H137.261V25.5008H152.797V19.3488H137.261V13.0472H154.654V6.93752H131.025Z" fill="white"/>
<path fill-rule="evenodd" clip-rule="evenodd" d="M100.226 6.93752V37.9543H113.539C115.396 37.9543 117.183 37.6071 118.889 36.9121L118.896 36.9094L118.902 36.9067C120.638 36.1807 122.184 35.1383 123.532 33.7897C124.898 32.4239 125.964 30.7851 126.738 28.896C127.53 26.9639 127.908 24.8049 127.908 22.4459C127.908 20.087 127.53 17.9279 126.738 15.9958C125.964 14.1067 124.898 12.4679 123.532 11.1021C122.183 9.75298 120.635 8.72291 118.896 8.02457C117.189 7.30027 115.4 6.93752 113.539 6.93752H100.226ZM113.413 31.8868H106.463V13.005H113.413C115.139 13.005 116.556 13.4378 117.732 14.2518L117.74 14.2576L117.748 14.2632C118.973 15.0877 119.921 16.1936 120.596 17.6161L120.6 17.6256L120.605 17.6351C121.309 19.0683 121.672 20.6634 121.672 22.4459C121.672 24.1967 121.311 25.7783 120.605 27.2145L120.6 27.224L120.596 27.2335C119.919 28.6595 118.967 29.7849 117.732 30.64C116.556 31.4541 115.139 31.8868 113.413 31.8868Z" fill="white"/>
<path fill-rule="evenodd" clip-rule="evenodd" d="M69.9434 33.3343L69.9375 33.328C68.5643 31.8612 67.5041 30.1754 66.759 28.2816L66.7575 28.2777L66.7559 28.2738C66.0085 26.3429 65.6392 24.2966 65.6392 22.1472C65.6392 19.9727 66.0075 17.9229 66.759 16.0127C67.5041 14.119 68.5643 12.4332 69.9375 10.9664L69.9434 10.9601L69.9493 10.9538C71.3663 9.47392 73.0491 8.32849 74.9815 7.5181C76.935 6.6989 79.0677 6.30106 81.3587 6.30106C83.6498 6.30106 85.7824 6.6989 87.7359 7.5181C89.6686 8.32857 91.3402 9.47542 92.7318 10.9601C94.1344 12.4266 95.2115 14.1143 95.9584 16.0127C96.71 17.9229 97.0782 19.9727 97.0782 22.1472C97.0782 24.2966 96.7089 26.3429 95.9615 28.2738L95.96 28.2777L95.9584 28.2816C95.2115 30.18 94.1344 31.8677 92.7318 33.3343C91.3402 34.8189 89.6686 35.9658 87.7359 36.7762C85.7824 37.5954 83.6498 37.9933 81.3587 37.9933C79.0677 37.9933 76.935 37.5954 74.9815 36.7762C73.0491 35.9659 71.3663 34.8204 69.9493 33.3405L69.9434 33.3343ZM76.2822 30.5835C77.6671 31.4029 79.3405 31.8414 81.3587 31.8414C83.4125 31.8414 85.0814 31.3998 86.4308 30.5862C87.8553 29.7162 88.9226 28.5731 89.6622 27.1416L89.6644 27.1374L89.6666 27.1331C90.4433 25.6525 90.8418 24.0003 90.8418 22.1472C90.8418 20.2619 90.4417 18.6146 89.6715 17.1705L89.6668 17.1617L89.6622 17.1527C88.924 15.7239 87.8606 14.5986 86.4434 13.7579L86.4302 13.75L86.4171 13.7419C85.0699 12.9058 83.4062 12.453 81.3587 12.453C79.3441 12.453 77.6741 12.9037 76.2904 13.7481L76.2822 13.753L76.274 13.7579C74.8557 14.5992 73.7754 15.7273 73.0084 17.1616C72.2635 18.6071 71.8756 20.2579 71.8756 22.1472C71.8756 24.0026 72.2612 25.6567 73.0109 27.1373C73.7782 28.5706 74.8603 29.7141 76.2822 30.5835Z" fill="white"/>
<path fill-rule="evenodd" clip-rule="evenodd" d="M39.6425 35.8518L39.6489 35.8559L39.6554 35.8599C41.9638 37.3027 44.6625 37.993 47.6878 37.993C49.9779 37.993 52.0897 37.5954 53.9972 36.7688L54.0071 36.7645L54.0168 36.7601C55.8855 35.9192 57.4953 34.7715 58.8265 33.3136L58.832 33.3075L58.8375 33.3014C60.155 31.8271 61.1443 30.1458 61.8013 28.2686L62.5161 26.2264H55.9875L55.5969 27.1793C55.0075 28.6176 54.0916 29.7386 52.8309 30.5791C51.6223 31.3848 50.0255 31.841 47.9411 31.841C45.924 31.841 44.2908 31.4032 42.9742 30.5986C41.6444 29.7405 40.6443 28.6096 39.9535 27.1822C39.2457 25.6916 38.8801 24.0216 38.8801 22.1468C38.8801 20.2382 39.2479 18.5713 39.9514 17.1158C40.6428 15.6853 41.643 14.5692 42.9712 13.7391L42.9743 13.7372L42.9773 13.7352C44.2936 12.9039 45.9249 12.4527 47.9411 12.4527C50.0255 12.4527 51.6223 12.9089 52.8309 13.7146C54.0917 14.5551 55.0075 15.6761 55.5969 17.1143L55.9875 18.0673H62.5044L61.8039 16.0325C61.1471 14.1247 60.155 12.4351 58.8265 10.9801C57.4934 9.52004 55.8802 8.38457 54.007 7.57135C52.097 6.71368 49.9815 6.30073 47.6878 6.30073C44.659 6.30073 41.9578 7.00676 39.6489 8.48C37.3844 9.89693 35.6342 11.8244 34.4136 14.2344L34.41 14.2415L34.4065 14.2487C33.2231 16.6464 32.6438 19.2884 32.6438 22.1468C32.6438 25.0053 33.2231 27.6473 34.4065 30.045L34.41 30.0522L34.4136 30.0593C35.6339 32.4687 37.3823 34.4078 39.6425 35.8518ZM59.4914 16.5279C59.4919 16.5294 59.4924 16.5308 59.493 16.5322H60.3524L60.3509 16.5279H59.4914Z" fill="white"/>
</g>
</g>
</svg>
