<svg width="" height="80" viewBox="0 0 149 80" fill="none" xmlns="http://www.w3.org/2000/svg">
<g filter="url(#filter0_d_856_10674)">
<rect x="17" y="13" width="114.846" height="45.7692" rx="22.8846" fill="white" shape-rendering="crispEdges"/>
<g clip-path="url(#clip0_856_10674)">
<path fill-rule="evenodd" clip-rule="evenodd" d="M41.8841 27.5518L46.8841 32.5518L36.0508 43.3851H31.0508V38.3851L37.1691 32.2668L38.3474 33.4451L32.7174 39.0751V41.7184H35.3591L42.1699 34.9084L38.3486 31.0873L41.8841 27.5518ZM47.7174 41.7184V43.3851H39.3841V41.7184H47.7174ZM40.7058 31.0868L41.8841 29.9093L44.5258 32.5509L43.3484 33.7293L40.7058 31.0868Z" fill="#A6A49F"/>
</g>
<path d="M63.9639 29.2969V41.5742H62.665V29.2969H63.9639ZM54.4756 31.457V30.4043H60.2178V34.875H55.8154V37.5547C57.8047 37.5479 59.5342 37.4521 61.585 37.1172L61.708 38.1836C59.541 38.5459 57.6953 38.6279 55.5283 38.6348H54.4893V33.8359H58.8916V31.457H54.4756ZM76.7389 36.3789V37.4453H73.9908V41.5469H72.692V37.4453H69.5885V41.5469H68.2623V37.4453H65.5279V36.3789H76.7389ZM66.9225 35.0254V29.7754H68.2076V31.334H74.0318V29.7754H75.3307V35.0254H66.9225ZM68.2076 33.9863H74.0318V32.3594H68.2076V33.9863ZM89.9842 29.3105V32.0312H91.7752V33.1113H89.9842V36.2148H88.6854V29.3105H89.9842ZM80.9197 35.3809V29.9121H82.2186V34.3008C83.8797 34.2871 85.6092 34.1436 87.4959 33.7676L87.66 34.834C85.5955 35.251 83.7225 35.374 81.9178 35.3809H80.9197ZM82.1365 41.3828V36.8574H89.9842V41.3828H82.1365ZM83.408 40.3438H88.7264V37.8691H83.408V40.3438ZM102.294 29.2969V41.5469H100.982V29.2969H102.294ZM92.2318 38.2656C95.4857 36.7139 97.0785 34.5059 97.3314 31.6484H92.8197V30.6094H98.6439C98.6439 34.1982 97.1195 37.3018 92.9154 39.3184L92.2318 38.2656ZM114.044 29.2969V41.5469H112.731V29.2969H114.044ZM103.981 38.2656C107.235 36.7139 108.828 34.5059 109.081 31.6484H104.569V30.6094H110.394C110.394 34.1982 108.869 37.3018 104.665 39.3184L103.981 38.2656Z" fill="#1C1818"/>
</g>
<defs>
<filter id="filter0_d_856_10674" x="0.1" y="0.1" width="148.646" height="79.5695" filterUnits="userSpaceOnUse" color-interpolation-filters="sRGB">
<feFlood flood-opacity="0" result="BackgroundImageFix"/>
<feColorMatrix in="SourceAlpha" type="matrix" values="0 0 0 0 0 0 0 0 0 0 0 0 0 0 0 0 0 0 127 0" result="hardAlpha"/>
<feOffset dy="4"/>
<feGaussianBlur stdDeviation="8.45"/>
<feComposite in2="hardAlpha" operator="out"/>
<feColorMatrix type="matrix" values="0 0 0 0 0 0 0 0 0 0 0 0 0 0 0 0 0 0 0.15 0"/>
<feBlend mode="normal" in2="BackgroundImageFix" result="effect1_dropShadow_856_10674"/>
<feBlend mode="normal" in="SourceGraphic" in2="effect1_dropShadow_856_10674" result="shape"/>
</filter>
<clipPath id="clip0_856_10674">
<rect width="20" height="20" fill="white" transform="translate(29.3848 25.8848)"/>
</clipPath>
</defs>
</svg>
