<svg width="96" height="28" viewBox="0 0 96 28" fill="none" xmlns="http://www.w3.org/2000/svg">
<rect x="0.5" width="95" height="28" rx="2" fill="#FF2D60"/>
<path fill-rule="evenodd" clip-rule="evenodd" d="M16.7808 8.81904L16.0888 7H18.0744L18.0767 7.01247L18.0787 7H20.2118L19.5097 8.81904H16.7808ZM19.5052 9.20861L23.8078 20.3653H21.1052L18.143 11.0248L15.6223 18.6934H19.5522L20.0536 20.3667H14.6619V20.3653H12.4998L16.7808 9.20861H18.143H19.5052Z" fill="white"/>
<path d="M35.7461 9.22266C37.1758 9.22266 38.2363 10.418 38.4238 12.3516H40.4453V8.44922H41.7344V19.0547H40.4453V13.4062H38.4355C38.2949 15.4512 37.2168 16.7109 35.7461 16.7109C34.1523 16.7109 33.0215 15.2637 33.0273 12.9609C33.0215 10.6758 34.1523 9.22266 35.7461 9.22266ZM34.2812 12.9609C34.2754 14.5898 34.873 15.5332 35.7461 15.5391C36.625 15.5332 37.2168 14.5898 37.2227 12.9609C37.2168 11.3438 36.625 10.3945 35.7461 10.3945C34.873 10.3945 34.2754 11.3438 34.2812 12.9609ZM51.7159 9.38672V10.3477C51.7101 11.6309 51.7277 13.1133 51.2472 15.3516L49.9698 15.2227C50.1573 14.3672 50.2687 13.6113 50.3331 12.9375L44.087 13.2891L43.8995 12.1758L50.4093 11.9414C50.4327 11.3906 50.4386 10.8984 50.4386 10.4414H44.2277V9.38672H51.7159ZM43.1027 17.7422V16.6641H46.6652V14.0508H47.9542V16.6641H52.7589V17.7422H43.1027ZM61.9553 13.418V14.4609H54.5256V9.375H61.8733V10.4297H55.8147V13.418H61.9553ZM53.3538 17.6953V16.6172H63.0334V17.6953H53.3538ZM74.3364 13.7578C74.3423 16.5 72.6665 18.1172 70.4458 18.1172C68.2134 18.1172 66.5493 16.4941 66.5552 13.7578C66.5493 11.0156 68.2134 9.39844 70.4458 9.39844C72.6665 9.39844 74.3423 11.0156 74.3364 13.7578ZM68.0903 13.7578C68.0845 15.6973 69.063 16.7461 70.4458 16.7461C71.8345 16.7461 72.8071 15.6973 72.8013 13.7578C72.8071 11.8184 71.8345 10.7695 70.4458 10.7695C69.063 10.7695 68.0845 11.8184 68.0903 13.7578ZM82.5484 9.51562V18H81.1891L77.1695 12.1992H77.0992V18H75.5758V9.51562H76.9586L80.9547 15.3164H81.0367V9.51562H82.5484Z" fill="white"/>
</svg>
