<svg width="108" height="28" viewBox="0 0 108 28" fill="none" xmlns="http://www.w3.org/2000/svg">
<rect x="0.75" y="0.75" width="106.5" height="26.5" rx="1.25" fill="white"/>
<rect x="0.75" y="0.75" width="106.5" height="26.5" rx="1.25" stroke="#ECEBEA" stroke-width="1.5"/>
<path d="M10 8L22 20" stroke="#A6A49F" stroke-width="2"/>
<path fill-rule="evenodd" clip-rule="evenodd" d="M21.1763 17.055C22.1188 16.2307 22.8636 15.1853 23.3307 14C22.1774 11.0733 19.3307 9 15.9974 9C15.1316 9 14.2986 9.13988 13.5196 9.39827L14.9551 10.8338C15.2884 10.7241 15.6399 10.6667 15.9974 10.6667C16.8815 10.6667 17.7293 11.0179 18.3544 11.643C18.9795 12.2681 19.3307 13.1159 19.3307 14C19.3307 14.3575 19.2733 14.709 19.1636 15.0423L21.1763 17.055ZM17.9933 13.872C17.9623 13.3883 17.7564 12.9306 17.4116 12.5858C17.0668 12.241 16.6091 12.0351 16.1254 12.0041L17.9933 13.872ZM14.0011 14.1225L15.8749 15.9963C15.3892 15.9665 14.9293 15.7603 14.5832 15.4142C14.2371 15.0681 14.0309 14.6082 14.0011 14.1225ZM12.8325 12.9538C12.7219 13.2883 12.6641 13.6411 12.6641 14C12.6641 14.8841 13.0153 15.7319 13.6404 16.357C14.2655 16.9821 15.1133 17.3333 15.9974 17.3333C16.3562 17.3333 16.7091 17.2755 17.0436 17.1649L18.4791 18.6004C17.699 18.8596 16.8647 19 15.9974 19C12.6641 19 9.8174 16.9267 8.66406 14C9.13163 12.8135 9.8775 11.7673 10.8213 10.9426L12.8325 12.9538Z" fill="#A6A49F"/>
<path d="M34.5117 9.48047C34.5 10.6289 35.3672 11.6367 37.0781 12.0234L36.4805 13.0547C35.2148 12.7383 34.3242 12.082 33.8555 11.1914C33.3691 12.1758 32.4492 12.9258 31.1602 13.2656L30.5391 12.2461C32.2617 11.8242 33.1523 10.6992 33.1523 9.48047V8.89453H34.5117V9.48047ZM39.2109 8.46094V19.0312H37.9219V8.46094H39.2109ZM30.3633 14.0273C32.2969 14.0273 34.9453 14.0039 37.2305 13.6875L37.3242 14.6133C36.4102 14.7891 35.4609 14.9062 34.5352 14.9766V18.7148H33.2227V15.0469C32.25 15.0879 31.3301 15.0938 30.5273 15.0938L30.3633 14.0273ZM50.0906 13.6875V14.7305H46.0008V16.6758H44.6766V14.7305H40.4109V13.6875H50.0906ZM49.0242 17.7656V18.832H41.5945V15.6914H42.907V17.7656H49.0242ZM45.2391 8.68359C47.5242 8.68359 49.0359 9.51562 49.0359 10.8516C49.0359 12.1875 47.5242 13.0078 45.2391 13.0078C42.9539 13.0078 41.4422 12.1875 41.4422 10.8516C41.4422 9.51562 42.9539 8.68359 45.2391 8.68359ZM45.2391 9.71484C43.7859 9.71484 42.8367 10.125 42.8484 10.8516C42.8367 11.5547 43.7859 11.9648 45.2391 11.9648C46.7039 11.9648 47.6414 11.5547 47.6414 10.8516C47.6414 10.125 46.7039 9.71484 45.2391 9.71484ZM61.9125 8.44922V13.875H60.6117V11.1914H58.5023V10.1484H60.6117V8.44922H61.9125ZM61.9125 14.332V17.0742H56.2289V17.8828H62.2523V18.9141H54.9516V16.1016H60.6234V15.3516H54.9398V14.332H61.9125ZM56.8852 9.64453C56.8852 10.9453 57.7406 12.1875 59.3813 12.6914L58.6898 13.6992C57.5414 13.3125 56.7094 12.5684 56.2523 11.6016C55.7836 12.6855 54.9164 13.5234 53.6625 13.9336L52.9828 12.8906C54.682 12.375 55.5727 11.0742 55.5727 9.64453V8.80078H56.8852V9.64453ZM71.9836 8.44922V14.6836H70.6828V13.2188H68.55V14.0391H63.5695V9.24609H68.55V10.0664H70.6828V8.44922H71.9836ZM64.8703 10.2773V12.9961H67.2609V10.2773H64.8703ZM68.3977 14.9648C70.6477 14.9648 72.0187 15.7148 72.0187 17.0039C72.0187 18.293 70.6477 19.0312 68.3977 19.0312C66.1594 19.0312 64.7883 18.293 64.8 17.0039C64.7883 15.7148 66.1594 14.9648 68.3977 14.9648ZM68.3977 15.9609C66.9211 15.9609 66.0891 16.3242 66.0891 17.0039C66.0891 17.6602 66.9211 18.0234 68.3977 18.0234C69.8742 18.0234 70.718 17.6602 70.718 17.0039C70.718 16.3242 69.8742 15.9609 68.3977 15.9609ZM68.55 12.1641H70.6828V11.0977H68.55V12.1641ZM83.7352 13.7578C83.7352 16.5 82.0711 18.1172 79.8445 18.1172C77.618 18.1172 75.9539 16.4883 75.9539 13.7578C75.9539 11.0156 77.618 9.39844 79.8445 9.39844C82.0711 9.39844 83.7352 11.0156 83.7352 13.7578ZM82.2 13.7578C82.2 11.8242 81.2273 10.7695 79.8445 10.7695C78.4617 10.7695 77.4891 11.8242 77.4891 13.7578C77.4891 15.6914 78.4617 16.7461 79.8445 16.7461C81.2273 16.7461 82.2 15.6914 82.2 13.7578ZM84.7945 18V9.51562H90.232V10.793H86.318V13.1133H89.857V14.3906H86.318V18H84.7945ZM91.2211 18V9.51562H96.6586V10.793H92.7445V13.1133H96.2836V14.3906H92.7445V18H91.2211Z" fill="#A6A49F"/>
</svg>
