<svg width="104" height="28" viewBox="0 0 104 28" fill="none" xmlns="http://www.w3.org/2000/svg">
<rect width="104" height="28" fill="#1C1818"/>
<path d="M15.9974 12C15.467 12 14.9583 12.2107 14.5832 12.5858C14.2081 12.9609 13.9974 13.4696 13.9974 14C13.9974 14.5304 14.2081 15.0391 14.5832 15.4142C14.9583 15.7893 15.467 16 15.9974 16C16.5278 16 17.0365 15.7893 17.4116 15.4142C17.7867 15.0391 17.9974 14.5304 17.9974 14C17.9974 13.4696 17.7867 12.9609 17.4116 12.5858C17.0365 12.2107 16.5278 12 15.9974 12ZM15.9974 17.3333C15.1133 17.3333 14.2655 16.9821 13.6404 16.357C13.0153 15.7319 12.6641 14.8841 12.6641 14C12.6641 13.1159 13.0153 12.2681 13.6404 11.643C14.2655 11.0179 15.1133 10.6667 15.9974 10.6667C16.8815 10.6667 17.7293 11.0179 18.3544 11.643C18.9795 12.2681 19.3307 13.1159 19.3307 14C19.3307 14.8841 18.9795 15.7319 18.3544 16.357C17.7293 16.9821 16.8815 17.3333 15.9974 17.3333ZM15.9974 9C12.6641 9 9.8174 11.0733 8.66406 14C9.8174 16.9267 12.6641 19 15.9974 19C19.3307 19 22.1774 16.9267 23.3307 14C22.1774 11.0733 19.3307 9 15.9974 9Z" fill="white"/>
<path d="M34.5117 9.48047C34.5 10.6289 35.3672 11.6367 37.0781 12.0234L36.4805 13.0547C35.2148 12.7383 34.3242 12.082 33.8555 11.1914C33.3691 12.1758 32.4492 12.9258 31.1602 13.2656L30.5391 12.2461C32.2617 11.8242 33.1523 10.6992 33.1523 9.48047V8.89453H34.5117V9.48047ZM39.2109 8.46094V19.0312H37.9219V8.46094H39.2109ZM30.3633 14.0273C32.2969 14.0273 34.9453 14.0039 37.2305 13.6875L37.3242 14.6133C36.4102 14.7891 35.4609 14.9062 34.5352 14.9766V18.7148H33.2227V15.0469C32.25 15.0879 31.3301 15.0938 30.5273 15.0938L30.3633 14.0273ZM50.2706 13.6875V14.7305H46.1808V16.6758H44.8566V14.7305H40.5909V13.6875H50.2706ZM49.2042 17.7656V18.832H41.7745V15.6914H43.087V17.7656H49.2042ZM45.4191 8.68359C47.7042 8.68359 49.2159 9.51562 49.2159 10.8516C49.2159 12.1875 47.7042 13.0078 45.4191 13.0078C43.1339 13.0078 41.6222 12.1875 41.6222 10.8516C41.6222 9.51562 43.1339 8.68359 45.4191 8.68359ZM45.4191 9.71484C43.9659 9.71484 43.0167 10.125 43.0284 10.8516C43.0167 11.5547 43.9659 11.9648 45.4191 11.9648C46.8839 11.9648 47.8214 11.5547 47.8214 10.8516C47.8214 10.125 46.8839 9.71484 45.4191 9.71484ZM62.4525 8.44922V13.875H61.1517V11.1914H59.0423V10.1484H61.1517V8.44922H62.4525ZM62.4525 14.332V17.0742H56.7689V17.8828H62.7923V18.9141H55.4916V16.1016H61.1634V15.3516H55.4798V14.332H62.4525ZM57.4252 9.64453C57.4252 10.9453 58.2806 12.1875 59.9212 12.6914L59.2298 13.6992C58.0814 13.3125 57.2494 12.5684 56.7923 11.6016C56.3236 12.6855 55.4564 13.5234 54.2025 13.9336L53.5228 12.8906C55.222 12.375 56.1127 11.0742 56.1127 9.64453V8.80078H57.4252V9.64453ZM72.7036 8.44922V14.6836H71.4028V13.2188H69.27V14.0391H64.2895V9.24609H69.27V10.0664H71.4028V8.44922H72.7036ZM65.5903 10.2773V12.9961H67.9809V10.2773H65.5903ZM69.1177 14.9648C71.3677 14.9648 72.7388 15.7148 72.7388 17.0039C72.7388 18.293 71.3677 19.0312 69.1177 19.0312C66.8794 19.0312 65.5083 18.293 65.52 17.0039C65.5083 15.7148 66.8794 14.9648 69.1177 14.9648ZM69.1177 15.9609C67.6411 15.9609 66.8091 16.3242 66.8091 17.0039C66.8091 17.6602 67.6411 18.0234 69.1177 18.0234C70.5942 18.0234 71.438 17.6602 71.438 17.0039C71.438 16.3242 70.5942 15.9609 69.1177 15.9609ZM69.27 12.1641H71.4028V11.0977H69.27V12.1641ZM84.8152 13.7578C84.8152 16.5 83.1511 18.1172 80.9245 18.1172C78.698 18.1172 77.0339 16.4883 77.0339 13.7578C77.0339 11.0156 78.698 9.39844 80.9245 9.39844C83.1511 9.39844 84.8152 11.0156 84.8152 13.7578ZM83.28 13.7578C83.28 11.8242 82.3073 10.7695 80.9245 10.7695C79.5417 10.7695 78.5691 11.8242 78.5691 13.7578C78.5691 15.6914 79.5417 16.7461 80.9245 16.7461C82.3073 16.7461 83.28 15.6914 83.28 13.7578ZM93.0272 9.51562V18H91.6678L87.6483 12.1992H87.578V18H86.0545V9.51562H87.4373L91.4334 15.3164H91.5155V9.51562H93.0272Z" fill="white"/>
</svg>
