<svg width="104" height="32" viewBox="0 0 104 32" fill="none" xmlns="http://www.w3.org/2000/svg">
<rect x="0.75" y="0.75" width="102.5" height="30.5" rx="1.25" fill="white"/>
<rect x="0.75" y="0.75" width="102.5" height="30.5" rx="1.25" stroke="#ECEBEA" stroke-width="1.5"/>
<path fill-rule="evenodd" clip-rule="evenodd" d="M16.2811 10.819L15.589 9H17.5746L17.5769 9.01247L17.5789 9H19.712L19.01 10.819H16.2811ZM19.0054 11.2086L23.3081 22.3653H20.6054L17.6432 13.0248L15.1225 20.6934H19.0525L19.5538 22.3667H14.1621V22.3653H12L16.2811 11.2086H17.6432H19.0054Z" fill="#C0BEBB"/>
<path d="M35.5166 10.9912C37.0718 10.9912 38.2207 12.2861 38.4238 14.3809H40.6074V10.1533H42.0039V21.6426H40.6074V15.5234H38.4365C38.2842 17.7388 37.1162 19.1035 35.5166 19.1035C33.79 19.1035 32.5713 17.542 32.5713 15.041C32.5713 12.5654 33.79 10.9912 35.5166 10.9912ZM35.5166 12.2607C34.5645 12.2607 33.917 13.2891 33.9297 15.041C33.917 16.8057 34.5645 17.834 35.5166 17.834C36.4688 17.834 37.1035 16.8057 37.1162 15.041C37.1035 13.2891 36.4688 12.2607 35.5166 12.2607ZM52.6223 11.1689V12.21C52.6096 13.6064 52.635 15.2061 52.1145 17.6309L50.7307 17.4912C50.9274 16.5708 51.048 15.752 51.1242 15.0156L44.3576 15.3965L44.1545 14.1904L51.2004 13.9365C51.2258 13.3398 51.2321 12.8066 51.2385 12.3115H44.51V11.1689H52.6223ZM53.7521 19.0527V20.2207H43.2912V19.0527H47.1506V16.2217H48.5471V19.0527H53.7521ZM63.5199 15.5361V16.666H55.4711V11.1562H63.4311V12.2988H56.8676V15.5361H63.5199ZM64.6879 19.002V20.1699H54.2016V19.002H64.6879ZM76.5428 15.9043C76.5428 18.875 74.74 20.627 72.3279 20.627C69.9158 20.627 68.1131 18.8623 68.1131 15.9043C68.1131 12.9336 69.9158 11.1816 72.3279 11.1816C74.74 11.1816 76.5428 12.9336 76.5428 15.9043ZM74.8797 15.9043C74.8797 13.8096 73.826 12.667 72.3279 12.667C70.8299 12.667 69.7762 13.8096 69.7762 15.9043C69.7762 17.999 70.8299 19.1416 72.3279 19.1416C73.826 19.1416 74.8797 17.999 74.8797 15.9043ZM77.6904 20.5V11.3086H83.5811V12.6924H79.3408V15.2061H83.1748V16.5898H79.3408V20.5H77.6904ZM84.6525 20.5V11.3086H90.5432V12.6924H86.3029V15.2061H90.1369V16.5898H86.3029V20.5H84.6525Z" fill="#A6A49F"/>
</svg>
