<svg width="104" height="32" viewBox="0 0 104 32" fill="none" xmlns="http://www.w3.org/2000/svg">
<rect width="104" height="32" rx="2.2" fill="#FF2D60"/>
<path fill-rule="evenodd" clip-rule="evenodd" d="M17.8163 10.3017L17.055 8.30078H19.2392L19.2417 8.3145L19.244 8.30078H21.5903L20.8181 10.3017H17.8163ZM20.8114 10.7303L25.5443 23.0027H22.5714L19.313 12.7281L16.5408 21.162H20.8639L21.4153 23.0025H15.9358L15.9357 23.0027H13.1055L17.8146 10.7303H19.313H20.8114Z" fill="white"/>
<path d="M38.6162 10.9912C40.165 10.9912 41.314 12.2861 41.5171 14.3809H43.707V10.1533H45.1035V21.6426H43.707V15.5234H41.5298C41.3774 17.7388 40.2095 19.1035 38.6162 19.1035C36.8896 19.1035 35.6646 17.5356 35.6709 15.041C35.6646 12.5654 36.8896 10.9912 38.6162 10.9912ZM37.0293 15.041C37.0229 16.8057 37.6704 17.8276 38.6162 17.834C39.5684 17.8276 40.2095 16.8057 40.2158 15.041C40.2095 13.2891 39.5684 12.2607 38.6162 12.2607C37.6704 12.2607 37.0229 13.2891 37.0293 15.041ZM55.9169 11.1689V12.21C55.9105 13.6001 55.9296 15.2061 55.4091 17.6309L54.0253 17.4912C54.2284 16.5645 54.349 15.7456 54.4188 15.0156L47.6522 15.3965L47.4491 14.1904L54.5013 13.9365C54.5267 13.3398 54.5331 12.8066 54.5331 12.3115H47.8046V11.1689H55.9169ZM46.5858 20.2207V19.0527H50.4452V16.2217H51.8417V19.0527H57.0468V20.2207H46.5858ZM67.0095 15.5361V16.666H58.9607V11.1562H66.9207V12.2988H60.3572V15.5361H67.0095ZM57.6912 20.1699V19.002H68.1775V20.1699H57.6912ZM80.4224 15.9043C80.4287 18.875 78.6133 20.627 76.2075 20.627C73.7891 20.627 71.9863 18.8687 71.9927 15.9043C71.9863 12.9336 73.7891 11.1816 76.2075 11.1816C78.6133 11.1816 80.4287 12.9336 80.4224 15.9043ZM73.6558 15.9043C73.6494 18.0054 74.7095 19.1416 76.2075 19.1416C77.7119 19.1416 78.7656 18.0054 78.7593 15.9043C78.7656 13.8032 77.7119 12.667 76.2075 12.667C74.7095 12.667 73.6494 13.8032 73.6558 15.9043ZM89.3187 11.3086V20.5H87.8461L83.4916 14.2158H83.4154V20.5H81.765V11.3086H83.2631L87.5922 17.5928H87.6811V11.3086H89.3187Z" fill="white"/>
</svg>
