<svg width="96" height="28" viewBox="0 0 96 28" fill="none" xmlns="http://www.w3.org/2000/svg">
<rect x="1.25" y="0.75" width="93.5" height="26.5" rx="1.25" fill="white"/>
<rect x="1.25" y="0.75" width="93.5" height="26.5" rx="1.25" stroke="#ECEBEA" stroke-width="1.5"/>
<path fill-rule="evenodd" clip-rule="evenodd" d="M14.7808 8.81904L14.0888 7H16.0744L16.0767 7.01247L16.0787 7H18.2118L17.5097 8.81904H14.7808ZM17.5052 9.20861L21.8078 20.3653H19.1052L16.143 11.0248L13.6223 18.6934H17.5522L18.0536 20.3667H12.6619V20.3653H10.4998L14.7808 9.20861H16.143H17.5052Z" fill="#C0BEBB"/>
<path d="M33.7461 9.22266C35.1758 9.22266 36.2363 10.418 36.4238 12.3516H38.4453V8.44922H39.7344V19.0547H38.4453V13.4062H36.4355C36.2949 15.4512 35.2168 16.7109 33.7461 16.7109C32.1523 16.7109 31.0215 15.2637 31.0273 12.9609C31.0215 10.6758 32.1523 9.22266 33.7461 9.22266ZM32.2812 12.9609C32.2754 14.5898 32.873 15.5332 33.7461 15.5391C34.625 15.5332 35.2168 14.5898 35.2227 12.9609C35.2168 11.3438 34.625 10.3945 33.7461 10.3945C32.873 10.3945 32.2754 11.3438 32.2812 12.9609ZM49.5359 9.38672V10.3477C49.5301 11.6309 49.5477 13.1133 49.0672 15.3516L47.7898 15.2227C47.9773 14.3672 48.0887 13.6113 48.1531 12.9375L41.907 13.2891L41.7195 12.1758L48.2293 11.9414C48.2527 11.3906 48.2586 10.8984 48.2586 10.4414H42.0477V9.38672H49.5359ZM40.9227 17.7422V16.6641H44.4852V14.0508H45.7742V16.6641H50.5789V17.7422H40.9227ZM59.5953 13.418V14.4609H52.1656V9.375H59.5133V10.4297H53.4547V13.418H59.5953ZM50.9937 17.6953V16.6172H60.6734V17.6953H50.9937ZM71.6164 13.7578C71.6223 16.5 69.9465 18.1172 67.7258 18.1172C65.4934 18.1172 63.8293 16.4941 63.8352 13.7578C63.8293 11.0156 65.4934 9.39844 67.7258 9.39844C69.9465 9.39844 71.6223 11.0156 71.6164 13.7578ZM65.3703 13.7578C65.3645 15.6973 66.343 16.7461 67.7258 16.7461C69.1145 16.7461 70.0871 15.6973 70.0812 13.7578C70.0871 11.8184 69.1145 10.7695 67.7258 10.7695C66.343 10.7695 65.3645 11.8184 65.3703 13.7578ZM72.6758 18V9.51562H78.1133V10.793H74.1992V13.1133H77.7383V14.3906H74.1992V18H72.6758ZM79.1023 18V9.51562H84.5398V10.793H80.6258V13.1133H84.1648V14.3906H80.6258V18H79.1023Z" fill="#A6A49F"/>
</svg>
