<svg width="375" height="25" viewBox="0 0 375 25" fill="none" xmlns="http://www.w3.org/2000/svg">
<g clip-path="url(#clip0_1793_18609)">
<path fill-rule="evenodd" clip-rule="evenodd" d="M19 3.43555H37V21.4355H19V19.4355H35V5.43555H21V17.4355H19V3.43555ZM29 15.4355V17.4355H27V15.4355H29ZM29 13.4355V7.43555H27V13.4355H29Z" fill="#FF2D60"/>
</g>
<path d="M51.0469 7.99805C51.0469 11.0918 50.0156 13.8809 46.1602 15.7559L45.5625 14.8887C47.4434 13.9746 48.6152 12.8438 49.2773 11.502L45.7734 11.8301L45.6211 10.8574L49.6289 10.5996C49.793 10.0664 49.8984 9.49805 49.9453 8.90039H46.1484V7.99805H51.0469ZM54.1172 6.93164V17.4316H52.9922V6.93164H54.1172ZM64.2352 6.94336V17.4316H63.1102V14.9238H60.7898V14.0801H63.1102V6.94336H64.2352ZM55.4109 12.4043C57.4031 12.3926 60.0516 12.3809 62.3484 12.0645L62.407 12.8848C61.4109 13.0605 60.3738 13.166 59.3602 13.2246V17.1035H58.2469V13.2832C57.2859 13.3242 56.3719 13.3301 55.5633 13.3301L55.4109 12.4043ZM58.868 7.42383C60.4148 7.42383 61.5281 8.2793 61.5281 9.52148C61.5281 10.7871 60.4148 11.6074 58.868 11.6074C57.2859 11.6074 56.1844 10.7871 56.1844 9.52148C56.1844 8.2793 57.2859 7.42383 58.868 7.42383ZM58.868 8.2793C57.8953 8.2793 57.2273 8.7832 57.2391 9.52148C57.2273 10.2715 57.8953 10.752 58.868 10.752C59.8055 10.752 60.4734 10.2715 60.4734 9.52148C60.4734 8.7832 59.8055 8.2793 58.868 8.2793ZM74.0367 11.9121V12.8262H66.7242V7.86914H73.943V8.7832H67.8258V11.9121H74.0367ZM75.1383 15.123V16.0488H65.5289V15.123H75.1383ZM86.9484 6.93164V17.4551H85.8352V6.93164H86.9484ZM83.7375 7.88086V11.7129H79.9641V14.0098C81.6633 14.0039 83.1516 13.9277 84.9094 13.6348L85.0148 14.5488C83.1516 14.8652 81.5695 14.9355 79.718 14.9355H78.8273V10.8223H82.6008V8.7832H78.8156V7.88086H83.7375ZM97.8984 13.002V13.916H95.543V17.4316H94.4297V13.916H91.7695V17.4316H90.6328V13.916H88.2891V13.002H97.8984ZM90.5859 7.3418V8.67773H95.5781V7.3418H96.6914V11.8418H89.4844V7.3418H90.5859ZM90.5859 10.9512H95.5781V9.55664H90.5859V10.9512ZM107.97 11.748V12.6035H98.3602V11.748H107.97ZM106.786 13.3418V15.6504H100.622V16.5176H107.114V17.3027H99.5086V14.9121H105.684V14.1387H99.4969V13.3418H106.786ZM106.763 7.20117V9.47461H100.692V10.2715H106.938V11.0566H99.5906V8.73633H105.649V7.98633H99.5672V7.20117H106.763ZM120.682 15.1934V16.1191H111.073V15.1934H115.303V12.7676H112.174V7.77539H119.534V12.7676H116.405V15.1934H120.682ZM113.252 8.66602V11.8887H118.444V8.66602H113.252ZM129.558 10.7988V11.6777H122.433V7.5293H129.429V8.43164H123.558V10.7988H129.558ZM130.741 12.9551V13.8574H126.452V17.4082H125.363V13.8574H121.132V12.9551H130.741ZM137.548 8.85352C137.548 10.2715 138.497 11.6543 140.079 12.2051L139.47 13.0723C138.321 12.6328 137.466 11.7656 137.02 10.6699C136.563 11.8887 135.667 12.8496 134.43 13.3184L133.833 12.4395C135.462 11.8535 136.434 10.4004 136.446 8.81836V7.57617H137.548V8.85352ZM142.598 6.94336V14.7715H141.485V10.248H139.27V9.33398H141.485V6.94336H142.598ZM142.833 16.3066V17.209H135.743V13.8926H136.868V16.3066H142.833ZM148.451 7.68164V8.58398H145.416V9.75586H148.334V10.6113H145.416V11.8887C146.822 11.877 147.748 11.8242 148.826 11.6191L148.931 12.5332C147.701 12.7676 146.705 12.8145 145.029 12.8027H144.349V7.68164H148.451ZM152.869 6.94336V13.3184H151.814V10.5176H150.525V13.2363H149.482V7.13086H150.525V9.61523H151.814V6.94336H152.869ZM152.869 13.8223V17.4316H151.767V14.7246H145.732V13.8223H152.869ZM159.178 8.66602V9.56836H153.963V8.66602H156.026V7.23633H157.127V8.66602H159.178ZM156.577 10.2012C157.912 10.2012 158.85 11.1973 158.862 12.6152C158.85 14.0449 157.912 15.0527 156.577 15.0527C155.264 15.0527 154.291 14.0449 154.303 12.6152C154.291 11.1973 155.264 10.2012 156.577 10.2012ZM156.577 11.127C155.815 11.127 155.287 11.748 155.287 12.6152C155.287 13.5059 155.815 14.1035 156.577 14.1035C157.327 14.1035 157.877 13.5059 157.877 12.6152C157.877 11.748 157.327 11.127 156.577 11.127ZM162.975 6.93164V17.4316H161.92V12.2168H160.713V16.9395H159.659V7.16602H160.713V11.3027H161.92V6.93164H162.975ZM173.632 12.8496V13.752H169.366V17.4199H168.277V13.752H164.058V12.8496H173.632ZM172.73 7.55273V8.44336H169.484C169.501 9.74414 171.118 10.9043 173.105 11.1738L172.695 12.0527C170.972 11.7832 169.484 10.9336 168.851 9.73242C168.2 10.9336 166.718 11.7832 165.019 12.0527L164.597 11.1738C166.56 10.9043 168.177 9.74414 168.218 8.44336H164.948V7.55273H172.73ZM177.328 9.80273C177.328 11.4785 178.031 13.2715 179.438 14.127L178.816 14.9824C177.832 14.3906 177.164 13.3418 176.812 12.123C176.42 13.459 175.699 14.5957 174.68 15.2168L173.988 14.3848C175.477 13.4941 176.25 11.6426 176.25 9.84961V7.89258H177.328V9.80273ZM183.164 6.93164V17.4316H182.098V6.93164H183.164ZM180.984 7.13086V16.916H179.93V11.5488H178.301V10.623H179.93V7.13086H180.984ZM193.809 15.1934V16.1191H184.2V15.1934H186.497V12.4512C185.636 11.9766 185.114 11.2207 185.114 10.2832C185.114 8.63086 186.731 7.54102 188.981 7.54102C191.243 7.54102 192.86 8.63086 192.86 10.2832C192.86 11.209 192.356 11.9531 191.512 12.4277V15.1934H193.809ZM188.981 8.43164C187.329 8.43164 186.192 9.14648 186.192 10.2832C186.192 11.4082 187.329 12.1465 188.981 12.1465C190.622 12.1465 191.782 11.4082 191.782 10.2832C191.782 9.14648 190.622 8.43164 188.981 8.43164ZM187.598 15.1934H190.387V12.8496C189.96 12.9609 189.485 13.0137 188.981 13.0137C188.489 13.0137 188.02 12.9609 187.598 12.8613V15.1934ZM195.466 16.5176C195.009 16.5176 194.623 16.1426 194.634 15.6855C194.623 15.2285 195.009 14.8535 195.466 14.8535C195.912 14.8535 196.298 15.2285 196.298 15.6855C196.298 16.1426 195.912 16.5176 195.466 16.5176Z" fill="#FF114A"/>
<defs>
<clipPath id="clip0_1793_18609">
<rect width="24" height="24" fill="white" transform="translate(16 0.435547)"/>
</clipPath>
</defs>
</svg>
