<svg width="375" height="25" viewBox="0 0 375 25" fill="none" xmlns="http://www.w3.org/2000/svg">
<g clip-path="url(#clip0_1796_28177)">
<path fill-rule="evenodd" clip-rule="evenodd" d="M19 3.43945H37V21.4395H19V19.4395H35V5.43945H21V17.4395H19V3.43945ZM29 15.4395V17.4395H27V15.4395H29ZM29 13.4395V7.43945H27V13.4395H29Z" fill="#FF2D60"/>
</g>
<path d="M54.1289 6.93555V12.3965H53.0273V11.1426H50.7305V12.0098H45.8906V7.41602H47.0039V8.83398H49.6289V7.41602H50.7305V8.37695H53.0273V6.93555H54.1289ZM54.1289 12.8652V15.4434H48.3984V16.416H54.5039V17.3066H47.2852V14.6113H53.0273V13.7324H47.2617V12.8652H54.1289ZM47.0039 11.1191H49.6289V9.68945H47.0039V11.1191ZM50.7305 10.2871H53.0273V9.23242H50.7305V10.2871ZM64.2117 6.93555V13.0527H63.0984V10.416H61.1297V9.49023H63.0984V6.93555H64.2117ZM64.2117 13.5449V17.3066H57.2859V13.5449H64.2117ZM58.3875 14.4238V16.4043H63.1219V14.4238H58.3875ZM59.2195 8.72852C59.2195 10.041 60.1687 11.3418 61.7508 11.8926L61.1766 12.7715C59.9988 12.3555 59.1258 11.5117 58.6687 10.4746C58.2117 11.6289 57.2918 12.5547 56.0437 12.9941L55.4695 12.1152C57.0867 11.5645 58.0828 10.1699 58.0828 8.72852V8.48242H55.8094V7.56836H61.4695V8.48242H59.2195V8.72852ZM70.3102 7.11133C72.6773 7.11133 74.0602 7.74414 74.0602 8.91602C74.0602 10.0879 72.6773 10.7324 70.3102 10.7324C67.943 10.7324 66.5602 10.0879 66.5602 8.91602C66.5602 7.74414 67.943 7.11133 70.3102 7.11133ZM70.3102 7.93164C68.6344 7.93164 67.7086 8.29492 67.7203 8.91602C67.7086 9.56055 68.6344 9.90039 70.3102 9.90039C71.9859 9.90039 72.9117 9.56055 72.9117 8.91602C72.9117 8.29492 71.9859 7.93164 70.3102 7.93164ZM75.1031 11.377V12.2676H65.5289V11.377H75.1031ZM73.8961 13.0762V15.5371H67.7789V16.4746H74.1891V17.3301H66.6891V14.7285H72.7945V13.9082H66.6773V13.0762H73.8961ZM86.4797 6.94727V9.2793H88.0148V10.2051H86.4797V12.8652H85.3664V6.94727H86.4797ZM86.4797 13.416V17.2949H79.7531V13.416H86.4797ZM80.843 14.2832V16.4043H85.4016V14.2832H80.843ZM79.8234 7.46289V11.2246C81.2473 11.2129 82.7355 11.0898 84.3469 10.7676L84.4875 11.6816C82.718 12.0449 81.1125 12.1387 79.5656 12.1504H78.7102V7.46289H79.8234ZM93.6445 8.06055C93.6445 8.64062 93.5918 9.20898 93.4922 9.75977H95.9414V6.92383H97.043V17.4238H95.9414V13.4863H93.1172V12.5723H95.9414V10.6504H93.2812C92.6836 12.6016 91.3242 14.2891 88.8516 15.502L88.2656 14.6113C90.9727 13.2812 92.3145 11.377 92.5312 8.95117H88.7461V8.06055H93.6445ZM107.946 12.8535V13.7559H103.68V17.4238H102.591V13.7559H98.3719V12.8535H107.946ZM107.044 7.55664V8.44727H103.798C103.815 9.74805 105.432 10.9082 107.419 11.1777L107.009 12.0566C105.286 11.7871 103.798 10.9375 103.165 9.73633C102.514 10.9375 101.032 11.7871 99.3328 12.0566L98.9109 11.1777C100.874 10.9082 102.491 9.74805 102.532 8.44727H99.2625V7.55664H107.044ZM111.642 9.80664C111.642 11.4824 112.345 13.2754 113.752 14.1309L113.13 14.9863C112.146 14.3945 111.478 13.3457 111.127 12.127C110.734 13.4629 110.013 14.5996 108.994 15.2207L108.302 14.3887C109.791 13.498 110.564 11.6465 110.564 9.85352V7.89648H111.642V9.80664ZM117.478 6.93555V17.4355H116.412V6.93555H117.478ZM115.298 7.13477V16.9199H114.244V11.5527H112.615V10.627H114.244V7.13477H115.298ZM128.123 15.1973V16.123H118.514V15.1973H120.811V12.4551C119.95 11.9805 119.428 11.2246 119.428 10.2871C119.428 8.63477 121.045 7.54492 123.295 7.54492C125.557 7.54492 127.174 8.63477 127.174 10.2871C127.174 11.2129 126.67 11.957 125.827 12.4316V15.1973H128.123ZM123.295 8.43555C121.643 8.43555 120.506 9.15039 120.506 10.2871C120.506 11.4121 121.643 12.1504 123.295 12.1504C124.936 12.1504 126.096 11.4121 126.096 10.2871C126.096 9.15039 124.936 8.43555 123.295 8.43555ZM121.912 15.1973H124.702V12.8535C124.274 12.9648 123.799 13.0176 123.295 13.0176C122.803 13.0176 122.334 12.9648 121.912 12.8652V15.1973ZM129.78 16.5215C129.323 16.5215 128.937 16.1465 128.948 15.6895C128.937 15.2324 129.323 14.8574 129.78 14.8574C130.226 14.8574 130.613 15.2324 130.613 15.6895C130.613 16.1465 130.226 16.5215 129.78 16.5215Z" fill="#FF114A"/>
<defs>
<clipPath id="clip0_1796_28177">
<rect width="24" height="24" fill="white" transform="translate(16 0.439453)"/>
</clipPath>
</defs>
</svg>
