<svg width="375" height="24" viewBox="0 0 375 24" fill="none" xmlns="http://www.w3.org/2000/svg">
<g clip-path="url(#clip0_1744_20036)">
<path fill-rule="evenodd" clip-rule="evenodd" d="M19 3H37V21H19V19H35V5H21V17H19V3ZM29 15V17H27V15H29ZM29 13V7H27V13H29Z" fill="#FF2D60"/>
</g>
<path d="M51.0469 7.5625C51.0469 8.67188 50.9004 9.69141 50.6074 10.6211C50.3145 11.5508 49.8086 12.416 49.0898 13.2168C48.3711 14.0176 47.3945 14.7188 46.1602 15.3203L45.5625 14.4531C46.4844 14.0039 47.248 13.5 47.8535 12.9414C48.4629 12.3789 48.9355 11.7559 49.2715 11.0723L45.7734 11.3945L45.6211 10.4219L49.6289 10.1641C49.7969 9.625 49.9004 9.05859 49.9395 8.46484H46.1484V7.5625H51.0469ZM54.1172 16.9961H52.9922V6.49609H54.1172V16.9961ZM64.2352 16.9961H63.1102V14.4883H60.7898V13.6445H63.1102V6.50781H64.2352V16.9961ZM55.4109 11.9688C56.868 11.9609 58.1355 11.9375 59.2137 11.8984C60.2957 11.8594 61.3406 11.7695 62.3484 11.6289L62.407 12.4492C61.5086 12.6094 60.493 12.7246 59.3602 12.7949V16.668H58.2469V12.8535C57.5008 12.8809 56.6062 12.8945 55.5633 12.8945L55.4109 11.9688ZM58.868 6.98828C59.3797 6.98828 59.8367 7.07812 60.2391 7.25781C60.6453 7.43359 60.9617 7.68164 61.1883 8.00195C61.4148 8.31836 61.5281 8.67969 61.5281 9.08594C61.5281 9.5 61.4148 9.86523 61.1883 10.1816C60.9617 10.498 60.6453 10.7422 60.2391 10.9141C59.8367 11.0859 59.3797 11.1719 58.868 11.1719C58.3445 11.1719 57.8797 11.0859 57.4734 10.9141C57.0672 10.7422 56.7508 10.498 56.5242 10.1816C56.2977 9.86523 56.1844 9.5 56.1844 9.08594C56.1844 8.67578 56.2977 8.3125 56.5242 7.99609C56.7508 7.67578 57.0672 7.42773 57.4734 7.25195C57.8797 7.07617 58.3445 6.98828 58.868 6.98828ZM58.868 7.84375C58.5477 7.84375 58.2625 7.89648 58.0125 8.00195C57.7664 8.10352 57.575 8.25 57.4383 8.44141C57.3016 8.62891 57.2352 8.84375 57.2391 9.08594C57.2352 9.33203 57.3016 9.54883 57.4383 9.73633C57.575 9.91992 57.7664 10.0625 58.0125 10.1641C58.2586 10.2656 58.5437 10.3164 58.868 10.3164C59.1805 10.3164 59.4578 10.2656 59.7 10.1641C59.9422 10.0625 60.1316 9.91992 60.2684 9.73633C60.4051 9.54883 60.4734 9.33203 60.4734 9.08594C60.4734 8.84375 60.4051 8.62891 60.2684 8.44141C60.1316 8.25 59.9402 8.10352 59.6941 8.00195C59.452 7.89648 59.1766 7.84375 58.868 7.84375ZM74.0367 12.3906H66.7242V7.43359H73.943V8.34766H67.8258V11.4766H74.0367V12.3906ZM75.1383 15.6133H65.5289V14.6875H75.1383V15.6133ZM86.9484 17.0195H85.8352V6.49609H86.9484V17.0195ZM83.7375 11.2773H79.9641V13.5742C80.8859 13.5703 81.7316 13.541 82.5012 13.4863C83.2746 13.4316 84.0773 13.3359 84.9094 13.1992L85.0148 14.1133C84.1398 14.2617 83.2902 14.3633 82.466 14.418C81.6457 14.4727 80.7297 14.5 79.718 14.5H78.8273V10.3867H82.6008V8.34766H78.8156V7.44531H83.7375V11.2773ZM97.8984 13.4805H95.543V16.9961H94.4297V13.4805H91.7695V16.9961H90.6328V13.4805H88.2891V12.5664H97.8984V13.4805ZM90.5859 8.24219H95.5781V6.90625H96.6914V11.4062H89.4844V6.90625H90.5859V8.24219ZM95.5781 10.5156V9.12109H90.5859V10.5156H95.5781ZM107.97 12.168H98.3602V11.3125H107.97V12.168ZM106.786 15.2148H100.622V16.082H107.114V16.8672H99.5086V14.4766H105.684V13.7031H99.4969V12.9062H106.786V15.2148ZM106.763 9.03906H100.692V9.83594H106.938V10.6211H99.5906V8.30078H105.649V7.55078H99.5672V6.76562H106.763V9.03906ZM120.682 15.6836H111.073V14.7578H115.303V12.332H112.174V7.33984H119.534V12.332H116.405V14.7578H120.682V15.6836ZM113.252 11.4531H118.444V8.23047H113.252V11.4531ZM129.558 11.2422H122.433V7.09375H129.429V7.99609H123.558V10.3633H129.558V11.2422ZM130.741 13.4219H126.452V16.9727H125.363V13.4219H121.132V12.5195H130.741V13.4219ZM137.548 8.41797C137.548 8.89062 137.649 9.34961 137.852 9.79492C138.055 10.2402 138.348 10.6367 138.731 10.9844C139.114 11.3281 139.563 11.5898 140.079 11.7695L139.47 12.6367C138.903 12.418 138.409 12.1016 137.987 11.6875C137.565 11.2734 137.241 10.791 137.014 10.2402C136.784 10.8574 136.448 11.3945 136.007 11.8516C135.565 12.3086 135.04 12.6523 134.43 12.8828L133.833 12.0039C134.368 11.8125 134.831 11.5332 135.221 11.166C135.612 10.7988 135.913 10.375 136.124 9.89453C136.335 9.41406 136.442 8.91016 136.446 8.38281V7.14062H137.548V8.41797ZM142.598 14.3359H141.485V9.8125H139.27V8.89844H141.485V6.50781H142.598V14.3359ZM142.833 16.7734H135.743V13.457H136.868V15.8711H142.833V16.7734ZM148.451 8.14844H145.416V9.32031H148.334V10.1758H145.416V11.4531C146.158 11.4453 146.783 11.4238 147.291 11.3887C147.798 11.3496 148.31 11.2812 148.826 11.1836L148.931 12.0977C148.388 12.1992 147.859 12.2695 147.343 12.3086C146.832 12.3477 146.209 12.3672 145.474 12.3672H145.029H144.349V7.24609H148.451V8.14844ZM152.869 12.8828H151.814V10.082H150.525V12.8008H149.482V6.69531H150.525V9.17969H151.814V6.50781H152.869V12.8828ZM152.869 16.9961H151.767V14.2891H145.732V13.3867H152.869V16.9961ZM159.178 9.13281H153.963V8.23047H156.026V6.80078H157.127V8.23047H159.178V9.13281ZM156.577 9.76562C157.018 9.76562 157.411 9.86914 157.754 10.0762C158.098 10.2793 158.368 10.5645 158.563 10.9316C158.758 11.2949 158.858 11.7109 158.862 12.1797C158.858 12.6523 158.758 13.0742 158.563 13.4453C158.368 13.8125 158.098 14.0996 157.754 14.3066C157.411 14.5137 157.018 14.6172 156.577 14.6172C156.143 14.6172 155.752 14.5137 155.405 14.3066C155.057 14.0996 154.786 13.8105 154.59 13.4395C154.395 13.0684 154.299 12.6484 154.303 12.1797C154.299 11.7148 154.395 11.2988 154.59 10.9316C154.786 10.5645 155.057 10.2793 155.405 10.0762C155.752 9.86914 156.143 9.76562 156.577 9.76562ZM156.577 10.6914C156.327 10.6914 156.104 10.7559 155.909 10.8848C155.713 11.0098 155.561 11.1855 155.452 11.4121C155.342 11.6387 155.287 11.8945 155.287 12.1797C155.287 12.4727 155.342 12.7324 155.452 12.959C155.561 13.1816 155.713 13.3555 155.909 13.4805C156.104 13.6055 156.327 13.668 156.577 13.668C156.827 13.668 157.049 13.6055 157.245 13.4805C157.444 13.3555 157.598 13.1816 157.707 12.959C157.821 12.7324 157.877 12.4727 157.877 12.1797C157.877 11.8945 157.821 11.6387 157.707 11.4121C157.598 11.1855 157.444 11.0098 157.245 10.8848C157.045 10.7559 156.823 10.6914 156.577 10.6914ZM162.975 16.9961H161.92V11.7812H160.713V16.5039H159.659V6.73047H160.713V10.8672H161.92V6.49609H162.975V16.9961ZM173.632 13.3164H169.366V16.9844H168.277V13.3164H164.058V12.4141H173.632V13.3164ZM172.73 8.00781H169.484C169.488 8.43359 169.652 8.83984 169.976 9.22656C170.304 9.60938 170.743 9.93555 171.294 10.2051C171.845 10.4707 172.448 10.6484 173.105 10.7383L172.695 11.6172C172.12 11.5273 171.579 11.377 171.071 11.166C170.564 10.9512 170.118 10.6855 169.736 10.3691C169.353 10.0488 169.056 9.69141 168.845 9.29688C168.529 9.89062 168.027 10.3926 167.339 10.8027C166.655 11.209 165.882 11.4805 165.019 11.6172L164.597 10.7383C165.245 10.6484 165.843 10.4707 166.39 10.2051C166.941 9.93555 167.38 9.60938 167.708 9.22656C168.036 8.83984 168.206 8.43359 168.218 8.00781H164.948V7.11719H172.73V8.00781ZM177.328 9.36719C177.328 9.9375 177.408 10.502 177.568 11.0605C177.729 11.6152 177.967 12.123 178.283 12.584C178.6 13.0449 178.984 13.4141 179.438 13.6914L178.816 14.5469C178.34 14.2617 177.932 13.873 177.592 13.3809C177.252 12.8848 176.99 12.3223 176.807 11.6934C176.607 12.377 176.326 12.9883 175.963 13.5273C175.604 14.0625 175.176 14.4805 174.68 14.7812L173.988 13.9492C174.469 13.6602 174.879 13.2773 175.219 12.8008C175.559 12.3203 175.814 11.7891 175.986 11.207C176.162 10.6211 176.25 10.0234 176.25 9.41406V7.45703H177.328V9.36719ZM183.164 16.9961H182.098V6.49609H183.164V16.9961ZM180.984 16.4805H179.93V11.1133H178.301V10.1875H179.93V6.69531H180.984V16.4805ZM193.809 15.6836H184.2V14.7578H186.497V12.0156C186.059 11.7734 185.72 11.4668 185.477 11.0957C185.235 10.7246 185.114 10.3086 185.114 9.84766C185.114 9.30469 185.278 8.82617 185.606 8.41211C185.938 7.99805 186.397 7.67773 186.983 7.45117C187.569 7.2207 188.235 7.10547 188.981 7.10547C189.731 7.10547 190.399 7.2207 190.985 7.45117C191.575 7.67773 192.034 7.99805 192.362 8.41211C192.694 8.82617 192.86 9.30469 192.86 9.84766C192.86 10.3047 192.743 10.7168 192.509 11.084C192.274 11.4473 191.942 11.75 191.512 11.9922V14.7578H193.809V15.6836ZM188.981 7.99609C188.434 7.99609 187.95 8.07227 187.528 8.22461C187.106 8.37305 186.778 8.58789 186.544 8.86914C186.309 9.14648 186.192 9.47266 186.192 9.84766C186.192 10.2188 186.309 10.5449 186.544 10.8262C186.778 11.1074 187.106 11.3262 187.528 11.4824C187.95 11.6348 188.434 11.7109 188.981 11.7109C189.524 11.7109 190.007 11.6348 190.429 11.4824C190.854 11.3262 191.186 11.1074 191.425 10.8262C191.663 10.5449 191.782 10.2188 191.782 9.84766C191.782 9.47656 191.663 9.15039 191.425 8.86914C191.19 8.58789 190.86 8.37305 190.434 8.22461C190.012 8.07227 189.528 7.99609 188.981 7.99609ZM190.387 14.7578V12.4199C189.962 12.5254 189.493 12.5781 188.981 12.5781C188.489 12.5781 188.028 12.5273 187.598 12.4258V14.7578H190.387Z" fill="#FF114A"/>
<defs>
<clipPath id="clip0_1744_20036">
<rect width="24" height="24" fill="white" transform="translate(16)"/>
</clipPath>
</defs>
</svg>
