<svg width="375" height="25" viewBox="0 0 375 25" fill="none" xmlns="http://www.w3.org/2000/svg">
<g clip-path="url(#clip0_2232_12173)">
<path fill-rule="evenodd" clip-rule="evenodd" d="M19 3.4375H37V21.4375H19V19.4375H35V5.4375H21V17.4375H19V3.4375ZM29 15.4375V17.4375H27V15.4375H29ZM29 13.4375V7.4375H27V13.4375H29Z" fill="#FF2D60"/>
</g>
<path d="M53.6367 6.94531V10.3203H55.1602V11.2461H53.6367V14.7969H52.5234V6.94531H53.6367ZM45.3984 9.06641V8.16406H47.9766V6.93359H49.0898V8.16406H51.6562V9.06641H45.3984ZM45.9727 11.5508C45.9668 10.3496 47.0039 9.56445 48.5273 9.57031C50.0332 9.56445 51.0703 10.3496 51.0703 11.5508C51.0703 12.7402 50.0332 13.5137 48.5273 13.5195C47.0039 13.5137 45.9668 12.7402 45.9727 11.5508ZM46.9805 17.2109V14.1758H48.0938V16.3086H54.082V17.2109H46.9805ZM47.0508 11.5508C47.0391 12.2363 47.6367 12.6582 48.5273 12.6523C49.418 12.6582 50.0156 12.2363 50.0273 11.5508C50.0156 10.8594 49.418 10.4316 48.5273 10.4258C47.6367 10.4316 47.0391 10.8594 47.0508 11.5508ZM65.032 11.2461V12.1367H60.7898V13.0742H63.825V15.5586H57.7078V16.4727H64.118V17.3281H56.618V14.7617H62.7234V13.9062H56.6062V13.0742H59.6883V12.1367H55.4578V11.2461H65.032ZM55.95 9.96875C57.8484 9.81055 59.3367 9.07812 59.5652 8.15234H56.3367V7.27344H64.1766V8.15234H60.9129C61.1355 9.07227 62.6414 9.81055 64.5516 9.96875L64.1883 10.8125C62.3836 10.6426 60.8719 9.99219 60.2391 8.99609C59.6062 9.99219 58.1062 10.6426 56.3016 10.8125L55.95 9.96875ZM76.8773 6.93359V17.457H75.7641V6.93359H76.8773ZM68.7445 8.78516V7.88281H73.6664V11.7148H69.893V14.0117C71.598 14.0059 73.0805 13.9238 74.8383 13.6367L74.9438 14.5508C73.0863 14.8613 71.5043 14.9316 69.6469 14.9375H68.7563V10.8242H72.5297V8.78516H68.7445ZM87.8273 13.0039V13.918H85.4719V17.4336H84.3586V13.918H81.6984V17.4336H80.5617V13.918H78.218V13.0039H87.8273ZM79.4133 11.8438V7.34375H80.5148V8.67969H85.507V7.34375H86.6203V11.8438H79.4133ZM80.5148 10.9531H85.507V9.55859H80.5148V10.9531ZM97.8984 11.75V12.6055H88.2891V11.75H97.8984ZM89.4258 14.1406V13.3438H96.7148V15.6523H90.5508V16.5195H97.043V17.3047H89.4375V14.9141H95.6133V14.1406H89.4258ZM89.4961 7.98828V7.20312H96.6914V9.47656H90.6211V10.2734H96.8672V11.0586H89.5195V8.73828H95.5781V7.98828H89.4961ZM104.67 8.82031C104.664 10.1621 105.595 11.4336 107.201 11.9727L106.638 12.8398C105.449 12.4297 104.576 11.6094 104.119 10.5781C103.662 11.709 102.748 12.6055 101.517 13.0391L100.92 12.1719C102.56 11.6152 103.55 10.2559 103.556 8.80859V8.52734H101.248V7.625H106.931V8.52734H104.67V8.82031ZM102.314 14.6797V13.7773H109.252V17.4336H108.138V14.6797H102.314ZM108.138 13.2617V6.93359H109.252V9.62891H110.775V10.5664H109.252V13.2617H108.138ZM114.799 8.50391C114.793 9.97461 115.748 11.2871 117.342 11.8086L116.733 12.6758C115.579 12.2539 114.729 11.4453 114.272 10.3906C113.821 11.5918 112.907 12.5352 111.635 12.9922L111.037 12.1016C112.713 11.5273 113.686 10.127 113.698 8.55078V7.51953H114.799V8.50391ZM112.76 15.4297C112.754 14.1582 114.102 13.4199 116.311 13.4258C118.508 13.4199 119.856 14.1582 119.862 15.4297C119.856 16.6953 118.508 17.416 116.311 17.4102C114.102 17.416 112.754 16.6953 112.76 15.4297ZM113.862 15.4297C113.856 16.127 114.77 16.5371 116.311 16.5312C117.84 16.5371 118.754 16.127 118.76 15.4297C118.754 14.709 117.84 14.293 116.311 14.293C114.77 14.293 113.856 14.709 113.862 15.4297ZM116.498 9.98047V9.06641H118.713V6.93359H119.827V13.1328H118.713V9.98047H116.498ZM126.335 8.66797V9.57031H121.12V8.66797H123.183V7.23828H124.284V8.66797H126.335ZM121.46 12.6172C121.454 11.2051 122.415 10.2031 123.734 10.2031C125.064 10.2031 126.013 11.2051 126.019 12.6172C126.013 14.0527 125.064 15.0605 123.734 15.0547C122.415 15.0605 121.454 14.0527 121.46 12.6172ZM122.445 12.6172C122.439 13.5078 122.978 14.1055 123.734 14.1055C124.489 14.1055 125.034 13.5078 125.034 12.6172C125.034 11.7441 124.489 11.1348 123.734 11.1289C122.978 11.1348 122.439 11.7441 122.445 12.6172ZM126.816 16.9414V7.16797H127.87V11.3047H129.077V6.93359H130.132V17.4336H129.077V12.2188H127.87V16.9414H126.816ZM140.789 12.8516V13.7539H136.523V17.4219H135.434V13.7539H131.215V12.8516H140.789ZM131.754 11.1758C133.711 10.9062 135.34 9.74023 135.375 8.44531H132.105V7.55469H139.887V8.44531H136.641C136.658 9.74023 138.275 10.9062 140.262 11.1758L139.852 12.0547C138.129 11.7852 136.641 10.9355 136.002 9.74023C135.357 10.9355 133.875 11.7852 132.176 12.0547L131.754 11.1758ZM144.485 9.80469C144.485 11.4805 145.188 13.2676 146.595 14.1289L145.973 14.9844C144.989 14.3926 144.327 13.3438 143.964 12.1309C143.583 13.4609 142.856 14.5977 141.837 15.2188L141.145 14.3867C142.628 13.4961 143.413 11.6387 143.407 9.85156V7.89453H144.485V9.80469ZM145.458 11.5508V10.625H147.087V7.13281H148.141V16.918H147.087V11.5508H145.458ZM149.255 17.4336V6.93359H150.321V17.4336H149.255ZM160.966 15.1953V16.1211H151.357V15.1953H153.654V12.4531C152.793 11.9785 152.265 11.2285 152.271 10.2852C152.265 8.63281 153.888 7.54883 156.138 7.54297C158.394 7.54883 160.017 8.63281 160.017 10.2852C160.017 11.2109 159.513 11.9551 158.67 12.4297V15.1953H160.966ZM153.349 10.2852C153.349 11.4102 154.492 12.1426 156.138 12.1484C157.773 12.1426 158.933 11.4102 158.939 10.2852C158.933 9.1543 157.773 8.43359 156.138 8.43359C154.492 8.43359 153.349 9.1543 153.349 10.2852ZM154.755 15.1953H157.545V12.8633C157.117 12.9629 156.642 13.0156 156.138 13.0156C155.646 13.0156 155.177 12.9629 154.755 12.8633V15.1953Z" fill="#FF114A"/>
<defs>
<clipPath id="clip0_2232_12173">
<rect width="24" height="24" fill="white" transform="translate(16 0.4375)"/>
</clipPath>
</defs>
</svg>
