<svg width="64" height="64" viewBox="0 0 64 64" fill="none" xmlns="http://www.w3.org/2000/svg">
<rect x="0.470588" y="0.470588" width="63.0588" height="63.0588" rx="3.52941" fill="#F7F9FC" stroke="#F7F9FC" stroke-width="0.941176"/>
<path fill-rule="evenodd" clip-rule="evenodd" d="M40.9495 22.3964C39.8063 21.2558 38.2574 20.6152 36.6425 20.6152C35.0277 20.6152 33.4787 21.2558 32.3355 22.3964L30.2825 24.4484C30.0885 24.6572 29.9831 24.933 29.9883 25.218C29.9935 25.503 30.109 25.7748 30.3106 25.9763C30.5121 26.1778 30.7839 26.2934 31.0689 26.2986C31.3538 26.3038 31.6297 26.1984 31.8385 26.0044L33.8915 23.9524C34.6217 23.2239 35.6111 22.8147 36.6425 22.8147C37.674 22.8147 38.6633 23.2239 39.3935 23.9524C39.756 24.3127 40.0434 24.7415 40.2391 25.2137C40.4348 25.6859 40.5349 26.1922 40.5335 26.7034C40.5349 27.2145 40.4349 27.7209 40.2392 28.1931C40.0435 28.6653 39.7561 29.094 39.3935 29.4544L35.7925 33.0554C34.3235 34.5254 31.7605 34.5254 30.2905 33.0554C30.0472 32.8128 29.837 32.5391 29.6655 32.2414C29.5202 31.9883 29.2803 31.8034 28.9986 31.7273C28.7169 31.6512 28.4165 31.69 28.1635 31.8354C27.9105 31.9807 27.7256 32.2206 27.6494 32.5023C27.5733 32.784 27.6122 33.0843 27.7575 33.3374C28.0245 33.8004 28.3525 34.2294 28.7345 34.6114C29.2989 35.1786 29.9701 35.6283 30.7094 35.9346C31.4487 36.2408 32.2413 36.3974 33.0415 36.3954C33.8417 36.3975 34.6344 36.2409 35.3737 35.9347C36.113 35.6285 36.7842 35.1787 37.3485 34.6114L40.9495 31.0114C41.517 30.4467 41.9669 29.7752 42.2731 29.0355C42.5793 28.2959 42.7358 27.5029 42.7335 26.7024C42.7357 25.9022 42.5791 25.1095 42.2729 24.3702C41.9667 23.6309 41.5169 22.9597 40.9495 22.3954" fill="#FF2D60"/>
<path fill-rule="evenodd" clip-rule="evenodd" d="M31.4282 37.4203L29.3752 39.4733C28.6448 40.2014 27.6555 40.6101 26.6242 40.6101C25.5929 40.6101 24.6037 40.2014 23.8732 39.4733C23.511 39.1128 23.2237 38.684 23.028 38.2119C22.8324 37.7397 22.7322 37.2334 22.7332 36.7223C22.7332 35.6833 23.1382 34.7063 23.8732 33.9723L27.4742 30.3703C27.8972 29.9483 28.4116 29.6292 28.9776 29.4377C29.5437 29.2463 30.1461 29.1876 30.7385 29.2663C31.3308 29.345 31.8971 29.5589 32.3935 29.8915C32.8899 30.2241 33.3031 30.6665 33.6012 31.1843C33.6732 31.3096 33.7691 31.4195 33.8836 31.5077C33.998 31.5959 34.1287 31.6607 34.2681 31.6984C34.4076 31.7361 34.5531 31.746 34.6964 31.7274C34.8397 31.7089 34.9779 31.6623 35.1032 31.5903C35.2285 31.5184 35.3384 31.4224 35.4266 31.308C35.5148 31.1936 35.5796 31.0629 35.6173 30.9234C35.655 30.7839 35.6649 30.6384 35.6463 30.4951C35.6278 30.3518 35.5812 30.2136 35.5092 30.0883C35.0423 29.278 34.3953 28.5859 33.6182 28.0655C32.8412 27.5451 31.9548 27.2104 31.0277 27.0873C30.1007 26.9641 29.1577 27.0558 28.2717 27.3553C27.3857 27.6548 26.5805 28.154 25.9182 28.8143L22.3172 32.4153C21.75 32.9797 21.3002 33.651 20.994 34.3902C20.6878 35.1295 20.5312 35.9221 20.5332 36.7223C20.5332 38.3493 21.1672 39.8793 22.3172 41.0293C22.8823 41.5955 23.5537 42.0443 24.2928 42.35C25.032 42.6556 25.8243 42.8121 26.6242 42.8103C28.1842 42.8103 29.7432 42.2163 30.9312 41.0303L32.9842 38.9773C33.1782 38.7685 33.2837 38.4927 33.2785 38.2077C33.2732 37.9227 33.1577 37.6509 32.9562 37.4494C32.7546 37.2478 32.4828 37.1323 32.1979 37.1271C31.9129 37.1219 31.637 37.2273 31.4282 37.4213" fill="#FF2D60"/>
</svg>
