<svg width="342" height="170" viewBox="0 0 342 170" fill="none" xmlns="http://www.w3.org/2000/svg">
<path d="M159.262 0L163.198 10.3462H178.719L182.712 0H170.58C170.576 0.0236067 170.572 0.0472542 170.569 0.0709424C170.564 0.047268 170.56 0.0236205 170.556 0H159.262Z" fill="#989592"/>
<path d="M203.159 75.9993L178.686 12.543H170.939H163.191L138.842 75.9993H153.476L170.939 22.8731L187.787 75.9993H203.159Z" fill="#989592"/>
<path d="M181.807 76H151.14V65.178H178.564L181.807 76Z" fill="#989592"/>
<rect x="33.625" y="128" width="275" height="5" fill="#ECEBEA"/>
<rect x="33.375" y="128" width="55" height="5" fill="#1C1818"/>
<path d="M127.559 154.936V156.002H125.823V157.547H127.559V158.613H125.823V160.773H124.524V152.912H125.823V154.936H127.559ZM116.211 155.25V154.225H119.219V152.816H120.518V154.225H123.512V155.25H116.211ZM116.881 157.998C116.874 156.679 118.078 155.817 119.862 155.811C121.625 155.817 122.829 156.679 122.829 157.998C122.829 159.311 121.625 160.165 119.862 160.158C118.078 160.165 116.874 159.311 116.881 157.998ZM117.852 163.016C117.838 161.662 119.383 160.869 121.912 160.869C124.408 160.869 125.959 161.662 125.959 163.016C125.959 164.349 124.408 165.142 121.912 165.135C119.383 165.142 117.838 164.349 117.852 163.016ZM118.139 157.998C118.125 158.723 118.823 159.174 119.862 159.174C120.901 159.174 121.598 158.723 121.612 157.998C121.598 157.253 120.901 156.781 119.862 156.781C118.823 156.781 118.125 157.253 118.139 157.998ZM119.137 163.016C119.13 163.733 120.149 164.15 121.912 164.15C123.649 164.15 124.667 163.733 124.674 163.016C124.667 162.271 123.649 161.874 121.912 161.867C120.149 161.874 119.13 162.271 119.137 163.016ZM139.158 162.605V163.699H127.947V162.605H131.01V160.445H129.314V156.549H136.506V154.84H129.287V153.773H137.791V157.602H130.6V159.379H138.078V160.445H136.219V162.605H139.158ZM132.268 162.605H134.947V160.445H132.268V162.605ZM150.894 158.531V159.529H139.683V158.531H150.894ZM141.009 161.32V160.391H149.513V163.084H142.322V164.096H149.896V165.012H141.023V162.223H148.228V161.32H141.009ZM141.091 154.143V153.227H149.486V155.879H142.404V156.809H149.691V157.725H141.119V155.018H148.187V154.143H141.091ZM165.684 160.295V161.361H160.735V165.176H159.45V161.361H154.514V160.295H165.684ZM155.171 158.408C157.495 158.114 159.368 156.815 159.45 155.441H155.567V154.389H159.45V152.912H160.735V154.389H164.618V155.441H160.749C160.817 156.802 162.67 158.114 165.001 158.408L164.536 159.447C162.567 159.174 160.892 158.251 160.099 157C159.306 158.265 157.625 159.174 155.649 159.447L155.171 158.408ZM177.42 158.285V159.256H172.485V160.281H176.026V163.043H168.889V164.055H176.368V165.039H167.618V162.141H174.741V161.225H167.604V160.281H171.2V159.256H166.278V158.285H177.42ZM166.825 156.822C169.169 156.692 170.824 155.975 171.09 154.936H167.385V153.938H171.2V152.857H172.485V153.938H176.313V154.936H172.587C172.847 155.975 174.501 156.692 176.873 156.822L176.477 157.807C174.344 157.649 172.608 157.027 171.842 155.954C171.077 157.027 169.34 157.649 167.194 157.807L166.825 156.822ZM187.557 152.912V157.875H189.525V158.955H187.557V165.162H186.271V152.912H187.557ZM177.945 155.893V154.826H180.967V153.076H182.266V154.826H185.205V155.893H177.945ZM178.574 159.639C178.574 157.971 179.859 156.795 181.623 156.795C183.38 156.795 184.665 157.971 184.672 159.639C184.665 161.32 183.38 162.489 181.623 162.496C179.859 162.489 178.574 161.32 178.574 159.639ZM179.818 159.639C179.812 160.705 180.577 161.416 181.623 161.402C182.662 161.416 183.421 160.705 183.428 159.639C183.421 158.593 182.662 157.868 181.623 157.861C180.577 157.868 179.812 158.593 179.818 159.639ZM199.675 156.494V157.533H191.24V153.35H192.525V156.494H199.675ZM189.75 160.117V159.078H200.961V160.117H189.75ZM191.144 164.875V161.279H192.443V163.809H199.757V164.875H191.144ZM215.751 158.586V159.639H210.802V160.814C213.044 160.938 214.377 161.689 214.384 162.975C214.377 164.362 212.791 165.142 210.159 165.135C207.493 165.142 205.907 164.362 205.907 162.975C205.907 161.689 207.24 160.931 209.516 160.814V159.639H204.581V158.586H215.751ZM205.169 156.918C207.37 156.692 209.106 155.694 209.284 154.512H205.606V153.473H214.753V154.512H211.034C211.212 155.701 212.934 156.692 215.177 156.918L214.712 157.943C212.586 157.697 210.829 156.802 210.166 155.503C209.489 156.802 207.746 157.697 205.62 157.943L205.169 156.918ZM207.22 162.975C207.213 163.72 208.286 164.15 210.159 164.137C212.005 164.15 213.085 163.72 213.085 162.975C213.085 162.216 212.005 161.806 210.159 161.799C208.286 161.806 207.213 162.216 207.22 162.975ZM217.725 164.096C217.192 164.089 216.747 163.658 216.754 163.125C216.747 162.592 217.192 162.154 217.725 162.154C218.251 162.154 218.689 162.592 218.696 163.125C218.689 163.658 218.251 164.089 217.725 164.096ZM221.066 164.096C220.533 164.089 220.089 163.658 220.096 163.125C220.089 162.592 220.533 162.154 221.066 162.154C221.593 162.154 222.03 162.592 222.037 163.125C222.03 163.658 221.593 164.089 221.066 164.096ZM224.408 164.096C223.875 164.089 223.43 163.658 223.437 163.125C223.43 162.592 223.875 162.154 224.408 162.154C224.934 162.154 225.372 162.592 225.379 163.125C225.372 163.658 224.934 164.089 224.408 164.096Z" fill="#85827F"/>
</svg>
