<svg width="342" height="170" viewBox="0 0 342 170" fill="none" xmlns="http://www.w3.org/2000/svg">
<path d="M159.26 0L163.196 10.3462H178.717L182.71 0H170.578C170.574 0.0236067 170.57 0.0472542 170.567 0.0709424C170.562 0.047268 170.558 0.0236205 170.554 0H159.26Z" fill="#FF2D60"/>
<path d="M203.157 75.9993L178.685 12.543H170.937H163.189L138.84 75.9993H153.474L170.937 22.8731L187.785 75.9993H203.157Z" fill="#1C1818"/>
<path d="M181.805 76H151.138V65.178H178.562L181.805 76Z" fill="#1C1818"/>
<rect x="33.8887" y="128" width="275" height="5" fill="#ECEBEA"/>
<path d="M33.1094 128H287.109V133H33.1094V128Z" fill="#1C1818"/>
<path d="M141.42 152.912V165.162H140.134V158.832H137.386V157.766H140.134V152.912H141.42ZM131.193 161.867C134.44 160.281 135.882 158.073 136.108 155.264H131.74V154.225H137.427C137.414 157.772 136.033 160.835 131.877 162.893L131.193 161.867ZM146.962 153.787C148.897 153.78 150.291 154.977 150.298 156.699C150.291 158.422 148.897 159.618 146.962 159.625C145.034 159.618 143.619 158.422 143.626 156.699C143.619 154.977 145.034 153.78 146.962 153.787ZM143.038 161.471C145.267 161.471 148.357 161.45 151.036 161.061L151.132 162.004C148.363 162.537 145.39 162.551 143.202 162.551L143.038 161.471ZM144.911 156.699C144.898 157.786 145.773 158.49 146.962 158.49C148.152 158.49 149.027 157.786 149.027 156.699C149.027 155.626 148.152 154.908 146.962 154.908C145.773 154.908 144.898 155.626 144.911 156.699ZM151.802 165.189V152.912H153.101V165.189H151.802ZM167.33 152.912V157.656H169.299V158.723H167.33V165.189H166.032V152.912H167.33ZM158.307 162.141V154.088H164.036V155.141H159.606V161.061C161.663 161.054 163.202 160.965 164.952 160.65L165.116 161.744C163.195 162.086 161.568 162.147 159.291 162.141H158.307ZM183.05 152.926V160.5H181.82V157.273H180.425V160.322H179.209V153.104H180.425V156.221H181.82V152.926H183.05ZM172.537 155.277V154.238H175.011V152.967H176.296V154.238H178.73V155.277H172.537ZM173.015 157.943C173.015 156.651 174.109 155.824 175.64 155.824C177.206 155.824 178.293 156.651 178.293 157.943C178.293 159.194 177.206 160.049 175.64 160.049C174.109 160.049 173.015 159.194 173.015 157.943ZM173.357 164.027C174.909 163.535 175.784 162.332 175.791 161.225V160.855H177.062V161.225C177.055 162.223 177.561 163.262 178.655 163.877C179.762 163.207 180.302 162.1 180.302 161.225V160.855H181.587V161.225C181.581 162.4 182.435 163.576 184.021 164.027L183.406 165.012C182.189 164.615 181.362 163.822 180.931 162.852C180.555 163.802 179.824 164.684 178.689 165.121C177.513 164.697 176.775 163.87 176.399 162.906C175.955 163.829 175.128 164.608 173.972 165.012L173.357 164.027ZM174.177 157.943C174.177 158.641 174.772 159.085 175.64 159.092C176.522 159.085 177.124 158.641 177.117 157.943C177.124 157.212 176.522 156.774 175.64 156.781C174.772 156.774 174.177 157.212 174.177 157.943ZM187.677 153.828C189.345 153.835 190.555 155.243 190.753 157.506H193.282V152.912H194.568V165.189H193.282V158.559H190.767C190.623 160.951 189.386 162.435 187.677 162.428C185.852 162.435 184.56 160.767 184.573 158.121C184.56 155.503 185.852 153.835 187.677 153.828ZM185.804 158.121C185.811 160.069 186.57 161.266 187.677 161.266C188.784 161.266 189.543 160.069 189.55 158.121C189.543 156.2 188.784 154.997 187.677 154.99C186.57 154.997 185.811 156.2 185.804 158.121ZM207.315 162.551V163.631H196.104V162.551H198.784V159.352C197.779 158.798 197.164 157.923 197.171 156.822C197.164 154.895 199.057 153.63 201.682 153.623C204.314 153.63 206.208 154.895 206.208 156.822C206.208 157.902 205.62 158.771 204.636 159.324V162.551H207.315ZM198.429 156.822C198.429 158.135 199.762 158.989 201.682 158.996C203.59 158.989 204.943 158.135 204.95 156.822C204.943 155.503 203.59 154.662 201.682 154.662C199.762 154.662 198.429 155.503 198.429 156.822ZM200.069 162.551H203.323V159.83C202.824 159.946 202.27 160.008 201.682 160.008C201.108 160.008 200.561 159.946 200.069 159.83V162.551ZM210.11 154.102L209.987 161.143H208.633L208.51 154.102H210.11ZM208.346 163.125C208.339 162.592 208.784 162.154 209.317 162.154C209.843 162.154 210.281 162.592 210.287 163.125C210.281 163.658 209.843 164.089 209.317 164.096C208.784 164.089 208.339 163.658 208.346 163.125Z" fill="#85827F"/>
</svg>
