<svg width="342" height="170" viewBox="0 0 342 170" fill="none" xmlns="http://www.w3.org/2000/svg">
<path d="M159.262 0L163.198 10.3462H178.719L182.712 0H170.58C170.576 0.0236067 170.572 0.0472542 170.569 0.0709424C170.564 0.047268 170.56 0.0236205 170.556 0H159.262Z" fill="#676461"/>
<path d="M203.159 75.9993L178.686 12.543H170.939H163.191L138.842 75.9993H153.476L170.939 22.8731L187.787 75.9993H203.159Z" fill="#676461"/>
<path d="M181.807 76H151.14V65.178H178.564L181.807 76Z" fill="#676461"/>
<rect x="33.6719" y="128" width="275" height="5" fill="#ECEBEA"/>
<rect x="33.3281" y="128" width="140" height="5" fill="#1C1818"/>
<path d="M111.963 154.088V157.027H114.315V154.088H115.504V157.506H117.131V153.158H118.376V164.574H117.131V158.586H115.504V162.141H110.733V154.088H111.963ZM111.963 161.061H114.315V158.08H111.963V161.061ZM119.62 165.162V152.912H120.864V165.162H119.62ZM132.217 152.912V165.189H130.918V152.912H132.217ZM122.496 158.121C122.496 155.503 123.816 153.835 125.668 153.828C127.487 153.835 128.826 155.503 128.826 158.121C128.826 160.767 127.487 162.435 125.668 162.428C123.816 162.435 122.496 160.767 122.496 158.121ZM123.754 158.121C123.747 160.069 124.527 161.266 125.668 161.266C126.789 161.266 127.569 160.069 127.569 158.121C127.569 156.2 126.789 154.997 125.668 154.99C124.527 154.997 123.747 156.2 123.754 158.121ZM140.043 154.648C140.043 156.645 142.169 158.531 144.527 158.955L143.926 160.035C141.964 159.611 140.166 158.326 139.373 156.604C138.566 158.319 136.768 159.598 134.806 160.035L134.232 158.955C136.556 158.518 138.669 156.645 138.676 154.648V153.719H140.043V154.648ZM133.822 163.549V162.469H145.033V163.549H133.822ZM156.769 158.531V159.529H145.558V158.531H156.769ZM146.884 161.32V160.391H155.388V163.084H148.197V164.096H155.771V165.012H146.898V162.223H154.103V161.32H146.884ZM146.966 154.143V153.227H155.361V155.879H148.279V156.809H155.566V157.725H146.994V155.018H154.062V154.143H146.966ZM170.917 152.912V165.162H169.686V152.912H170.917ZM160.321 161.621C162.925 160.076 164.17 158.019 164.395 155.496H160.922V154.43H165.68C165.68 155.059 165.632 155.667 165.537 156.262H167.184V153.227H168.415V164.561H167.184V160.391H165.092V159.324H167.184V157.328H165.297C164.703 159.386 163.397 161.177 161.087 162.551L160.321 161.621ZM183.555 154.744V155.824H181.764V157.328H183.555V158.408H181.764V160.322H180.465V152.926H181.764V154.744H183.555ZM172.631 154.717V153.664H178.209V157.096H173.944V158.586C176.07 158.586 177.573 158.504 179.358 158.203L179.494 159.256C177.601 159.591 175.981 159.666 173.629 159.652H172.645V156.098H176.938V154.717H172.631ZM173.684 162.893C173.684 161.471 175.249 160.623 177.799 160.623C180.315 160.623 181.873 161.471 181.873 162.893C181.873 164.314 180.315 165.135 177.799 165.135C175.249 165.135 173.684 164.314 173.684 162.893ZM174.955 162.893C174.948 163.692 176.001 164.15 177.799 164.137C179.57 164.15 180.609 163.692 180.602 162.893C180.609 162.1 179.57 161.642 177.799 161.648C176.001 161.642 174.948 162.1 174.955 162.893ZM193.431 152.912V157.875H195.4V158.955H193.431V165.162H192.146V152.912H193.431ZM183.82 155.893V154.826H186.842V153.076H188.14V154.826H191.08V155.893H183.82ZM184.449 159.639C184.449 157.971 185.734 156.795 187.498 156.795C189.255 156.795 190.54 157.971 190.547 159.639C190.54 161.32 189.255 162.489 187.498 162.496C185.734 162.489 184.449 161.32 184.449 159.639ZM185.693 159.639C185.686 160.705 186.452 161.416 187.498 161.402C188.537 161.416 189.296 160.705 189.303 159.639C189.296 158.593 188.537 157.868 187.498 157.861C186.452 157.868 185.686 158.593 185.693 159.639ZM205.55 156.494V157.533H197.115V153.35H198.4V156.494H205.55ZM195.624 160.117V159.078H206.835V160.117H195.624ZM197.019 164.875V161.279H198.318V163.809H205.632V164.875H197.019ZM221.626 158.586V159.639H216.676V160.814C218.919 160.938 220.252 161.689 220.258 162.975C220.252 164.362 218.666 165.142 216.034 165.135C213.368 165.142 211.782 164.362 211.782 162.975C211.782 161.689 213.115 160.931 215.391 160.814V159.639H210.456V158.586H221.626ZM211.044 156.918C213.245 156.692 214.981 155.694 215.159 154.512H211.481V153.473H220.628V154.512H216.909C217.087 155.701 218.809 156.692 221.051 156.918L220.587 157.943C218.461 157.697 216.704 156.802 216.041 155.503C215.364 156.802 213.621 157.697 211.495 157.943L211.044 156.918ZM213.094 162.975C213.087 163.72 214.161 164.15 216.034 164.137C217.879 164.15 218.96 163.72 218.96 162.975C218.96 162.216 217.879 161.806 216.034 161.799C214.161 161.806 213.087 162.216 213.094 162.975ZM223.6 164.096C223.067 164.089 222.622 163.658 222.629 163.125C222.622 162.592 223.067 162.154 223.6 162.154C224.126 162.154 224.564 162.592 224.571 163.125C224.564 163.658 224.126 164.089 223.6 164.096ZM226.941 164.096C226.408 164.089 225.964 163.658 225.971 163.125C225.964 162.592 226.408 162.154 226.941 162.154C227.468 162.154 227.905 162.592 227.912 163.125C227.905 163.658 227.468 164.089 226.941 164.096ZM230.283 164.096C229.749 164.089 229.305 163.658 229.312 163.125C229.305 162.592 229.749 162.154 230.283 162.154C230.809 162.154 231.246 162.592 231.253 163.125C231.246 163.658 230.809 164.089 230.283 164.096Z" fill="#85827F"/>
</svg>
