<svg width="342" height="170" viewBox="0 0 342 170" fill="none" xmlns="http://www.w3.org/2000/svg">
<path d="M159.262 0L163.198 10.3462H178.719L182.712 0H170.58C170.576 0.0236067 170.572 0.0472542 170.569 0.0709424C170.564 0.047268 170.56 0.0236205 170.556 0H159.262Z" fill="#1C1818"/>
<path d="M203.159 75.9993L178.686 12.543H170.939H163.191L138.842 75.9993H153.476L170.939 22.8731L187.787 75.9993H203.159Z" fill="#1C1818"/>
<path d="M181.807 76H151.14V65.178H178.564L181.807 76Z" fill="#1C1818"/>
<rect x="33.7754" y="128" width="275" height="5" fill="#ECEBEA"/>
<rect x="33.2246" y="128" width="215" height="5" fill="#1C1818"/>
<path d="M133.434 154.936V156.002H131.697V157.547H133.434V158.613H131.697V160.773H130.399V152.912H131.697V154.936H133.434ZM122.086 155.25V154.225H125.094V152.816H126.393V154.225H129.387V155.25H122.086ZM122.756 157.998C122.749 156.679 123.952 155.817 125.737 155.811C127.5 155.817 128.703 156.679 128.703 157.998C128.703 159.311 127.5 160.165 125.737 160.158C123.952 160.165 122.749 159.311 122.756 157.998ZM123.727 163.016C123.713 161.662 125.258 160.869 127.787 160.869C130.282 160.869 131.834 161.662 131.834 163.016C131.834 164.349 130.282 165.142 127.787 165.135C125.258 165.142 123.713 164.349 123.727 163.016ZM124.014 157.998C124 158.723 124.697 159.174 125.737 159.174C126.776 159.174 127.473 158.723 127.487 157.998C127.473 157.253 126.776 156.781 125.737 156.781C124.697 156.781 124 157.253 124.014 157.998ZM125.012 163.016C125.005 163.733 126.024 164.15 127.787 164.15C129.524 164.15 130.542 163.733 130.549 163.016C130.542 162.271 129.524 161.874 127.787 161.867C126.024 161.874 125.005 162.271 125.012 163.016ZM139.4 153.117C142.162 153.11 143.768 153.855 143.775 155.223C143.768 156.597 142.162 157.342 139.4 157.342C136.638 157.342 135.018 156.597 135.025 155.223C135.018 153.855 136.638 153.11 139.4 153.117ZM133.822 159.133V158.094H144.992V159.133H133.822ZM135.162 161.047V160.076H143.584V162.947H136.447V164.041H143.926V165.039H135.176V162.004H142.299V161.047H135.162ZM136.379 155.223C136.372 155.981 137.452 156.371 139.4 156.371C141.362 156.371 142.442 155.981 142.435 155.223C142.442 154.498 141.362 154.074 139.4 154.074C137.452 154.074 136.372 154.498 136.379 155.223ZM154.888 153.596C154.895 155.059 156.85 156.446 159.208 156.768L158.702 157.779C156.74 157.479 155.018 156.528 154.231 155.202C153.438 156.528 151.709 157.479 149.747 157.779L149.255 156.768C151.606 156.446 153.555 155.072 153.562 153.596V153.076H154.888V153.596ZM148.64 159.693V158.641H159.81V159.693H154.86V161.143H158.442V165.162H157.13V162.182H149.884V161.143H153.575V159.693H148.64ZM164.737 154.744C164.73 156.46 165.844 157.991 167.704 158.6L166.993 159.611C165.646 159.119 164.655 158.176 164.122 156.945C163.595 158.347 162.529 159.447 161.046 159.98L160.348 158.941C162.303 158.271 163.438 156.638 163.452 154.799V153.596H164.737V154.744ZM162.358 162.824C162.351 161.341 163.923 160.479 166.501 160.486C169.064 160.479 170.636 161.341 170.643 162.824C170.636 164.301 169.064 165.142 166.501 165.135C163.923 165.142 162.351 164.301 162.358 162.824ZM163.643 162.824C163.636 163.638 164.703 164.116 166.501 164.109C168.285 164.116 169.351 163.638 169.358 162.824C169.351 161.983 168.285 161.498 166.501 161.498C164.703 161.498 163.636 161.983 163.643 162.824ZM166.719 156.467V155.4H169.303V152.912H170.602V160.145H169.303V156.467H166.719ZM181.682 152.912V157.875H183.651V158.955H181.682V165.162H180.397V152.912H181.682ZM172.071 155.893V154.826H175.092V153.076H176.391V154.826H179.33V155.893H172.071ZM172.699 159.639C172.699 157.971 173.985 156.795 175.748 156.795C177.505 156.795 178.79 157.971 178.797 159.639C178.79 161.32 177.505 162.489 175.748 162.496C173.985 162.489 172.699 161.32 172.699 159.639ZM173.944 159.639C173.937 160.705 174.702 161.416 175.748 161.402C176.787 161.416 177.546 160.705 177.553 159.639C177.546 158.593 176.787 157.868 175.748 157.861C174.702 157.868 173.937 158.593 173.944 159.639ZM193.801 156.494V157.533H185.365V153.35H186.65V156.494H193.801ZM183.875 160.117V159.078H195.086V160.117H183.875ZM185.269 164.875V161.279H186.568V163.809H193.883V164.875H185.269ZM209.876 158.586V159.639H204.927V160.814C207.169 160.938 208.502 161.689 208.509 162.975C208.502 164.362 206.916 165.142 204.284 165.135C201.618 165.142 200.032 164.362 200.032 162.975C200.032 161.689 201.365 160.931 203.642 160.814V159.639H198.706V158.586H209.876ZM199.294 156.918C201.495 156.692 203.231 155.694 203.409 154.512H199.731V153.473H208.878V154.512H205.159C205.337 155.701 207.06 156.692 209.302 156.918L208.837 157.943C206.711 157.697 204.954 156.802 204.291 155.503C203.614 156.802 201.871 157.697 199.745 157.943L199.294 156.918ZM201.345 162.975C201.338 163.72 202.411 164.15 204.284 164.137C206.13 164.15 207.21 163.72 207.21 162.975C207.21 162.216 206.13 161.806 204.284 161.799C202.411 161.806 201.338 162.216 201.345 162.975ZM211.85 164.096C211.317 164.089 210.873 163.658 210.879 163.125C210.873 162.592 211.317 162.154 211.85 162.154C212.377 162.154 212.814 162.592 212.821 163.125C212.814 163.658 212.377 164.089 211.85 164.096ZM215.192 164.096C214.658 164.089 214.214 163.658 214.221 163.125C214.214 162.592 214.658 162.154 215.192 162.154C215.718 162.154 216.155 162.592 216.162 163.125C216.155 163.658 215.718 164.089 215.192 164.096ZM218.533 164.096C218 164.089 217.555 163.658 217.562 163.125C217.555 162.592 218 162.154 218.533 162.154C219.059 162.154 219.497 162.592 219.504 163.125C219.497 163.658 219.059 164.089 218.533 164.096Z" fill="#85827F"/>
</svg>
