<svg width="159" height="84" viewBox="0 0 159 84" fill="none" xmlns="http://www.w3.org/2000/svg">
<g clip-path="url(#clip0_1347_30531)">
<path d="M58.667 18.9211C58.6659 17.2799 58.9886 15.6545 59.6165 14.1382C60.2445 12.6218 61.1654 11.2442 62.3265 10.0842C63.4876 8.92429 64.8661 8.00477 66.3831 7.37834C67.9001 6.75191 69.5258 6.43087 71.167 6.43361H87.8337C94.7357 6.43361 100.334 12.0482 100.334 18.9211V43.9336H71.167C64.2649 43.9336 58.667 38.319 58.667 31.4461V18.9211ZM96.167 39.7669V18.9211C96.1615 16.7138 95.2813 14.5987 93.7194 13.0391C92.1574 11.4794 90.041 10.6025 87.8337 10.6003H71.167C70.0729 10.5975 68.9891 10.8108 67.9776 11.2278C66.9661 11.6449 66.047 12.2575 65.2727 13.0305C64.4985 13.8036 63.8846 14.7218 63.466 15.7327C63.0475 16.7435 62.8326 17.827 62.8337 18.9211V31.4461C62.8392 33.6534 63.7193 35.7685 65.2813 37.3282C66.8433 38.8878 68.9597 39.7647 71.167 39.7669H96.167ZM83.667 23.1003H87.8337V27.2669H83.667V23.1003ZM71.167 23.1003H75.3337V27.2669H71.167V23.1003Z" fill="#D9D8D7"/>
</g>
<path d="M4.45156 67.5586C6.54531 67.5586 8.02969 69.4648 8.04531 72.4648C8.02969 75.4805 6.54531 77.3867 4.45156 77.3867C2.35781 77.3867 0.857811 75.4805 0.873436 72.4648C0.857811 69.4648 2.35781 67.5586 4.45156 67.5586ZM4.45156 68.8867C3.17031 68.8867 2.29531 70.2617 2.29531 72.4648C2.29531 74.6836 3.17031 76.0586 4.45156 76.0586C5.74844 76.0586 6.62344 74.6836 6.62344 72.4648C6.62344 70.2617 5.74844 68.8867 4.45156 68.8867ZM11.6078 66.5117V71.9961H13.8578V73.2461H11.6078V80.5117H10.1234V66.5117H11.6078ZM19.3172 69.0273C19.3172 70.8242 20.6609 72.543 22.8172 73.2305L22.0516 74.3867C20.4422 73.8555 19.2234 72.7461 18.5984 71.3398C17.9656 72.8633 16.7234 74.0664 15.0516 74.6523L14.2859 73.5117C16.4578 72.7617 17.8016 70.9336 17.8172 69.0273V68.6367H14.6766V67.4336H22.3953V68.6367H19.3172V69.0273ZM25.7391 66.5117V74.9648H24.2547V66.5117H25.7391ZM25.7391 75.668V80.5117H24.2547V76.8711H16.2547V75.668H25.7391ZM43.8453 73.0898V74.3086H31.0641V73.0898H43.8453ZM42.3609 70.668V71.8711H32.6578V67.0117H42.2672V68.2305H34.1266V70.668H42.3609ZM37.4391 75.4023C40.4547 75.4023 42.2672 76.3242 42.2672 77.9492C42.2672 79.5742 40.4547 80.4961 37.4391 80.4805C34.4078 80.4961 32.5797 79.5742 32.5797 77.9492C32.5797 76.3242 34.4078 75.4023 37.4391 75.4023ZM37.4391 76.543C35.2984 76.5586 34.0797 77.0586 34.0797 77.9492C34.0797 78.8398 35.2984 79.3398 37.4391 79.3398C39.5484 79.3398 40.7828 78.8398 40.7828 77.9492C40.7828 77.0586 39.5484 76.5586 37.4391 76.543ZM57.2891 74.1523V75.3555H44.4766V74.1523H50.1484V72.8242H46.1172V69.2617H54.1953V68.0117H46.0859V66.8398H55.6797V70.3555H47.5859V71.668H55.9609V72.8242H51.6172V74.1523H57.2891ZM55.7578 76.3398V80.4023H54.2578V77.5273H45.9141V76.3398H55.7578ZM66.0766 70.9961V72.1992H63.3422V73.9648C64.5844 73.9102 65.8187 73.8242 66.9672 73.6992L67.0766 74.793C64.0922 75.1992 60.8109 75.2773 58.1859 75.2773L57.9828 74.0898C59.1781 74.082 60.5141 74.0664 61.8734 74.0273V72.1992H59.2328V67.4023H65.9516V68.6055H60.7172V70.9961H66.0766ZM69.5297 66.5117V77.0117H68.0453V66.5117H69.5297ZM69.9672 79.0117V80.2148H60.2953V76.2617H61.7797V79.0117H69.9672ZM86.4797 66.5117V80.543H84.9953V66.5117H86.4797ZM82.1984 67.7773V72.8867H77.1672V75.9492C79.4328 75.9414 81.4172 75.8398 83.7609 75.4492L83.9016 76.668C81.4172 77.0898 79.3078 77.1836 76.8391 77.1836H75.6516V71.6992H80.6828V68.9805H75.6359V67.7773H82.1984ZM101.08 74.6055V75.8242H97.9391V80.5117H96.4547V75.8242H92.9078V80.5117H91.3922V75.8242H88.2672V74.6055H101.08ZM91.3297 67.0586V68.8398H97.9859V67.0586H99.4703V73.0586H89.8609V67.0586H91.3297ZM91.3297 71.8711H97.9859V70.0117H91.3297V71.8711ZM112.617 66.5117V72.0898H114.789V73.3242H112.617V80.4961H111.133V66.5117H112.617ZM108.961 67.9805C108.945 72.0273 107.164 75.6367 102.555 77.918L101.727 76.7617C105.234 75.0117 107.141 72.4805 107.445 69.2148H102.43V67.9805H108.961ZM121.63 74.7148V76.3398H123.817V74.7148H125.192V80.3398H120.239V74.7148H121.63ZM121.63 79.1836H123.817V77.4648H121.63V79.1836ZM129.255 75.7617C129.255 77.2305 130.067 78.7148 131.802 79.3242L131.036 80.4492C129.77 79.9648 128.95 79.0508 128.52 77.9336C128.052 79.0273 127.223 79.9492 126.02 80.4492L125.27 79.3242C126.958 78.6367 127.786 77.1523 127.786 75.7617V74.6211H129.255V75.7617ZM122.52 67.1055C124.364 67.1055 125.786 68.1523 126.098 69.7148H128.833V66.5117H130.317V73.9336H128.833V70.9336H126.114C125.809 72.543 124.38 73.5898 122.52 73.5898C120.38 73.5898 118.848 72.2773 118.848 70.3398C118.848 68.4336 120.38 67.1055 122.52 67.1055ZM122.52 68.3398C121.192 68.3398 120.27 69.1523 120.27 70.3398C120.27 71.543 121.192 72.3711 122.52 72.3867C123.817 72.3711 124.739 71.543 124.739 70.3398C124.739 69.1523 123.817 68.3398 122.52 68.3398ZM135.87 67.5586C137.769 67.5586 139.159 69.168 139.386 71.7617H142.277V66.5117H143.745V80.543H142.277V72.9648H139.402C139.237 75.6914 137.816 77.3867 135.87 77.3867C133.777 77.3867 132.308 75.4805 132.323 72.4648C132.308 69.4648 133.777 67.5586 135.87 67.5586ZM135.87 68.8867C134.605 68.8867 133.73 70.2617 133.73 72.4648C133.73 74.6836 134.605 76.0586 135.87 76.0586C137.136 76.0586 138.011 74.6836 138.011 72.4648C138.011 70.2617 137.136 68.8867 135.87 68.8867ZM158.314 77.5273V78.7617H145.502V77.5273H148.564V73.8711C147.416 73.2383 146.72 72.2305 146.72 70.9805C146.72 68.7773 148.877 67.3242 151.877 67.3242C154.892 67.3242 157.048 68.7773 157.048 70.9805C157.048 72.2148 156.377 73.207 155.252 73.8398V77.5273H158.314ZM151.877 68.5117C149.673 68.5117 148.158 69.4648 148.158 70.9805C148.158 72.4805 149.673 73.4648 151.877 73.4648C154.064 73.4648 155.611 72.4805 155.611 70.9805C155.611 69.4648 154.064 68.5117 151.877 68.5117ZM150.033 77.5273H153.752V74.4023C153.181 74.5508 152.548 74.6211 151.877 74.6211C151.22 74.6211 150.595 74.5508 150.033 74.418V77.5273Z" fill="#C0BEBB"/>
<defs>
<clipPath id="clip0_1347_30531">
<rect width="50" height="50" fill="white" transform="translate(54.5 0.183594)"/>
</clipPath>
</defs>
</svg>
