<svg width="375" height="230" viewBox="0 0 375 230" fill="none" xmlns="http://www.w3.org/2000/svg">
<rect width="7.33068" height="12.2178" transform="matrix(0.672442 0.74015 0.74015 -0.672442 113.471 17.2158)" fill="#FF2D60"/>
<rect width="7.33068" height="12.2178" transform="matrix(-0.141762 0.989901 0.989901 0.141762 249.146 64.501)" fill="#FF2D60"/>
<rect x="205.693" y="142.885" width="7.33068" height="12.2178" transform="rotate(-95.4241 205.693 142.885)" fill="#D9D8D7"/>
<rect width="7.33068" height="12.2178" transform="matrix(0.966628 0.256184 0.256184 -0.966628 336.189 130.83)" fill="#FF2D60"/>
<rect width="7.33068" height="12.2178" transform="matrix(-0.141762 0.989901 0.989901 0.141762 305.935 43.8135)" fill="#D9D8D7"/>
<rect x="297.042" y="147.042" width="7.33068" height="12.2178" transform="rotate(154.922 297.042 147.042)" fill="#D9D8D7"/>
<rect width="7.33068" height="12.2178" transform="matrix(0.573382 0.819288 0.819288 -0.573382 212.847 22.0918)" fill="#D9D8D7"/>
<rect x="250.593" y="219.471" width="7.33068" height="12.2178" transform="rotate(-55.2543 250.593 219.471)" fill="#FF2D60"/>
<rect width="7.33068" height="12.2178" transform="matrix(-0.598215 0.801336 0.801336 0.598215 52.3857 52.4316)" fill="#FF2D60"/>
<rect x="148.469" y="54.9189" width="7.33068" height="12.2178" transform="rotate(3.89882 148.469 54.9189)" fill="#D9D8D7"/>
</svg>
