<svg width="24" height="24" viewBox="0 0 24 24" fill="none" xmlns="http://www.w3.org/2000/svg">
<g clip-path="url(#clip0_947_23809)">
<path d="M5 18.9981H6.414L15.728 9.68413L14.314 8.27013L5 17.5841V18.9981ZM21 20.9981H3V16.7551L16.435 3.32013C16.6225 3.13266 16.8768 3.02734 17.142 3.02734C17.4072 3.02734 17.6615 3.13266 17.849 3.32013L20.678 6.14913C20.8655 6.33666 20.9708 6.59097 20.9708 6.85613C20.9708 7.12129 20.8655 7.3756 20.678 7.56313L9.243 18.9981H21V20.9981ZM15.728 6.85613L17.142 8.27013L18.556 6.85613L17.142 5.44213L15.728 6.85613Z" fill="#C0BEBB"/>
</g>
<defs>
<clipPath id="clip0_947_23809">
<rect width="24" height="24" fill="white"/>
</clipPath>
</defs>
</svg>
