<svg width="24" height="24" viewBox="0 0 24 24" fill="none" xmlns="http://www.w3.org/2000/svg">
<g clip-path="url(#clip0_1435_19065)">
<path fill-rule="evenodd" clip-rule="evenodd" d="M17.9381 10C17.9381 5.58172 14.3564 2 9.93811 2C5.85849 2 2.4921 5.05369 2 9H4.02106C4.49714 6.16229 6.96511 4 9.93811 4C13.2518 4 15.9381 6.68629 15.9381 10C15.9381 13.3137 13.2518 16 9.93811 16C6.96511 16 4.49714 13.8377 4.02106 11H2C2.4921 14.9463 5.85849 18 9.93811 18C11.7868 18 13.4891 17.3729 14.8438 16.3199L20.3021 21.7782L21.7163 20.364L16.258 14.9056C17.311 13.551 17.9381 11.8487 17.9381 10Z" fill="current"/>
</g>
<defs>
<clipPath id="clip0_1435_19065">
<rect width="24" height="24" fill="white"/>
</clipPath>
</defs>
</svg>
