<svg width="24" height="24" viewBox="0 0 24 24" fill="none" xmlns="http://www.w3.org/2000/svg">
<g clip-path="url(#clip0_2420_12845)">
<path fill-rule="evenodd" clip-rule="evenodd" d="M12 2C14.2091 2 16 3.79086 16 6C16 8.20914 14.2091 10 12 10C9.79086 10 8 8.20914 8 6C8 3.79086 9.79086 2 12 2ZM18 20V19C18 15.7616 15.4344 13.1224 12.2249 13.0041L12 13C9.02694 13 6.55893 15.1624 6.08293 18.0002L4.06189 18C4.55396 14.0537 7.92037 11 12 11C16.4183 11 20 14.5817 20 19V22H4V20H18ZM10 6C10 4.89543 10.8954 4 12 4C13.1046 4 14 4.89543 14 6C14 7.10457 13.1046 8 12 8C10.8954 8 10 7.10457 10 6Z" fill="#191919"/>
</g>
<defs>
<clipPath id="clip0_2420_12845">
<rect width="24" height="24" fill="white"/>
</clipPath>
</defs>
</svg>
